<?xml version="1.0" encoding="UTF-8"?>
<svg id="evilbunny" xmlns="http://www.w3.org/2000/svg" viewBox="0 0 271.33 331.39">
  <defs>
    <style>
      .cls-1 {
        fill: #ff03b2;
      }

      .cls-1, .cls-2 {
        stroke: #000;
        stroke-miterlimit: 10;
      }

      .cls-2 {
        stroke-width: 2px;
      }
    </style>
  </defs>
  <path class="cls-1" d="m4.99,4.59c-13.61,6.96,6.68,75.54,21.45,110.65,14.04,33.38,21.07,50.07,29.48,58.2,3.08,2.98,9.57,8.59,10.77,17.39.99,7.25-2.38,11.08-3.78,23.43-.64,5.64-.48,9.64-.19,16.25,1.29,29.15,2.09,47.43,7.56,59.91,14.18,32.35,66.45,41.06,96,40.44,11.17-.23,64.88-.15,84.09-33.45,6.06-10.5,7.32-21.93,8.6-33.45,2.87-25.96-3.19-48.26-4.54-53.01-4.1-14.44-7.17-16.13-7.65-26.08-.76-15.62,6.06-26.96,9.92-34.58,15.22-29.99,14.5-60.77,13.85-88.73-.45-19.38-4.25-59.88-14.51-61.03-12.82-1.45-31.27,59.01-36.76,86.27-4.43,22-6.64,33-6.8,39.4-.32,12.29,1.16,21.27-3.17,23.48-4.22,2.15-8.76-4.75-20.36-9.87-10.38-4.58-19.69-4.41-38.3-4.09-16.85.3-25.28.45-33.46,5.02-11.83,6.61-13.62,15.6-18.37,14.75-7.39-1.32-5.13-23.44-12.76-50.27-8.33-29.3-24.03-48.67-34.65-61.75C42.55,32.54,15.51-.79,4.99,4.59Z"/>
  <g>
    <ellipse class="cls-2" cx="119.34" cy="239.57" rx="15.58" ry="18.24"/>
    <ellipse class="cls-2" cx="199.1" cy="238.33" rx="15.58" ry="18.24"/>
    <polygon class="cls-2" points="101.28 210.37 98.63 196.01 144.36 219.63 142.66 231.34 101.28 210.37"/>
    <polygon class="cls-2" points="218.76 208.67 221.41 194.31 175.67 217.93 177.37 229.64 218.76 208.67"/>
    <polygon class="cls-2" points="152.11 266.12 175.67 265.17 165.34 279.91 152.11 266.12"/>
    <g>
      <line class="cls-2" x1="142.84" y1="277.78" x2="156.63" y2="290.07"/>
      <line class="cls-2" x1="165.96" y1="282.21" x2="155.57" y2="290.15"/>
      <line class="cls-2" x1="187.96" y1="277.74" x2="174.17" y2="290.02"/>
      <line class="cls-2" x1="164.84" y1="282.17" x2="175.23" y2="290.11"/>
    </g>
  </g>
</svg>