<?xml version="1.0" encoding="UTF-8"?>
<svg id="Layer_1" data-name="Layer 1" xmlns="http://www.w3.org/2000/svg" viewBox="0 0 1398.43 746">
  <defs>
    <style>
      .cls-1 {
        fill: #ff03b2;
      }

      .cls-1, .cls-2, .cls-3 {
        stroke: #000;
        stroke-miterlimit: 10;
      }

      .cls-4 {
        fill: #ff0;
      }

      .cls-4, .cls-5 {
        stroke-width: 0px;
      }

      .cls-6 {
        font-family: BerlinSansFBDemi-Bold, 'Berlin Sans FB Demi';
        font-size: 72px;
        font-weight: 700;
      }

      .cls-2, .cls-3 {
        stroke-width: 2px;
      }

      .cls-3 {
        fill: none;
      }

      .cls-5 {
        fill: aqua;
      }
    </style>
  </defs>
  <g>
    <rect class="cls-4" x="6" y="6" width="1249" height="734"/>
    <path class="cls-5" d="m1249,12v722H12V12h1237m12-12H0v746h1261V0h0Z"/>
  </g>
  <g>
    <path class="cls-1" d="m591.55,47.01c-27.51,14.07,13.5,152.59,43.33,223.5,28.37,67.43,42.57,101.15,59.54,117.59,6.22,6,19.34,17.36,21.76,35.13,2.01,14.65-4.82,22.37-7.63,47.32-1.28,11.39-.96,19.46-.38,32.84,2.58,58.87,4.21,95.82,15.28,121,28.65,65.35,134.21,82.93,193.92,81.69,22.56-.48,131.05-.29,169.89-67.55,12.25-21.22,14.81-44.29,17.36-67.55,5.81-52.43-6.45-97.48-9.16-107.09-8.3-29.17-14.49-32.58-15.48-52.68-1.53-31.56,12.22-54.47,20.04-69.85,30.76-60.6,29.29-122.76,27.98-179.24-.93-39.15-8.58-120.97-29.32-123.3-25.91-2.94-63.18,119.21-74.25,174.26-8.93,44.45-13.4,66.66-13.75,79.58-.64,24.83,2.33,42.95-6.41,47.42-8.52,4.34-17.68-9.6-41.13-19.94-20.96-9.25-39.76-8.9-77.38-8.26-34.05.61-51.06.89-67.58,10.15-23.9,13.34-27.51,31.49-37.11,29.8-14.93-2.65-10.37-47.35-25.78-101.54-16.82-59.19-48.53-98.31-69.98-124.74-17.9-22.08-72.53-89.41-93.78-78.53h.03Z"/>
    <g>
      <ellipse class="cls-2" cx="822.54" cy="521.66" rx="31.46" ry="36.82"/>
      <ellipse class="cls-2" cx="983.69" cy="519.17" rx="31.46" ry="36.82"/>
      <polygon class="cls-2" points="786.07 462.69 780.71 433.69 873.09 481.39 869.67 505.07 786.07 462.69"/>
      <polygon class="cls-2" points="1023.38 459.25 1028.74 430.24 936.33 477.95 939.78 501.62 1023.38 459.25"/>
      <polygon class="cls-2" points="888.75 575.3 936.33 573.39 915.46 603.16 888.75 575.3"/>
      <g>
        <line class="cls-3" x1="870.02" y1="598.88" x2="897.88" y2="623.68"/>
        <line class="cls-3" x1="916.74" y1="607.82" x2="895.74" y2="623.84"/>
        <line class="cls-3" x1="961.16" y1="598.79" x2="933.3" y2="623.61"/>
        <line class="cls-3" x1="914.47" y1="607.72" x2="935.47" y2="623.77"/>
      </g>
    </g>
  </g>
  <text class="cls-6" transform="translate(389.57 178.03)"><tspan x="0" y="0">GAMEOVER:(</tspan></text>
</svg>