<?xml version="1.0" encoding="UTF-8"?>
<svg id="liv" xmlns="http://www.w3.org/2000/svg" xmlns:xlink="http://www.w3.org/1999/xlink" viewBox="0 0 2008.47 1128.74">
  <defs>
    <style>
      .cls-1 {
        fill: url(#linear-gradient);
      }

      .cls-1, .cls-2, .cls-3, .cls-4, .cls-5, .cls-6, .cls-7, .cls-8, .cls-9, .cls-10, .cls-11, .cls-12, .cls-13, .cls-14, .cls-15, .cls-16, .cls-17, .cls-18, .cls-19, .cls-20, .cls-21, .cls-22, .cls-23, .cls-24, .cls-25, .cls-26, .cls-27, .cls-28, .cls-29, .cls-30, .cls-31, .cls-32, .cls-33, .cls-34, .cls-35, .cls-36, .cls-37, .cls-38 {
        stroke-width: 0px;
      }

      .cls-2 {
        fill: #e29208;
      }

      .cls-3 {
        fill: #5a5951;
      }

      .cls-39, .cls-40, .cls-41, .cls-42, .cls-43, .cls-44, .cls-45, .cls-46, .cls-47 {
        stroke: #000;
        stroke-miterlimit: 10;
      }

      .cls-39, .cls-41 {
        fill: none;
      }

      .cls-4 {
        fill: #ece0cc;
      }

      .cls-5 {
        fill: #161a17;
      }

      .cls-6 {
        fill: #044d42;
      }

      .cls-7 {
        fill: #d4670e;
      }

      .cls-8 {
        fill: #3c3731;
      }

      .cls-9 {
        fill: #f7c30f;
      }

      .cls-10 {
        fill: #038261;
      }

      .cls-11 {
        fill: #b90a1e;
      }

      .cls-12 {
        fill: #858473;
      }

      .cls-13 {
        fill: #e6e6e6;
      }

      .cls-14 {
        fill: #f6e80a;
      }

      .cls-15 {
        fill: #026d59;
      }

      .cls-41 {
        stroke-width: 8px;
      }

      .cls-42 {
        opacity: .68;
        stroke-width: 2px;
      }

      .cls-42, .cls-44 {
        fill: #666;
      }

      .cls-17 {
        fill: #fff86a;
        opacity: .38;
      }

      .cls-18 {
        fill: #faf4ed;
      }

      .cls-43 {
        fill: #999;
      }

      .cls-19, .cls-38 {
        fill: #1b1464;
      }

      .cls-20 {
        fill: #1c1511;
      }

      .cls-21 {
        fill: #08332e;
      }

      .cls-22 {
        fill: #985e03;
      }

      .cls-23 {
        fill: #daccac;
      }

      .cls-24 {
        fill: #4a504a;
      }

      .cls-25 {
        fill: #cabaa5;
      }

      .cls-26 {
        fill: #2a1710;
      }

      .cls-27 {
        fill: #b76603;
      }

      .cls-28 {
        fill: #b4a78b;
      }

      .cls-45 {
        fill: #b3b3b3;
      }

      .cls-29 {
        fill: #890318;
      }

      .cls-30 {
        fill: #9b8a76;
      }

      .cls-31 {
        fill: #2d0e08;
      }

      .cls-46 {
        fill: #4d4d4d;
      }

      .cls-32 {
        fill: #d5b899;
      }

      .cls-33 {
        fill: #d5d1ca;
      }

      .cls-47 {
        fill: #3ffff6;
        stroke-width: .25px;
      }

      .cls-34 {
        fill: #f3d30a;
      }

      .cls-35 {
        fill: #f5b106;
      }

      .cls-36 {
        fill: #d11a1e;
      }

      .cls-37 {
        fill: #5f080c;
      }

      .cls-38 {
        opacity: .17;
      }
    </style>
    <linearGradient id="linear-gradient" x1="60.2" y1="238.74" x2="96.78" y2="205.11" gradientTransform="translate(65.97 1085.84) rotate(-11.73) scale(1 -1)" gradientUnits="userSpaceOnUse">
      <stop offset="0" stop-color="#dbcdaa"/>
      <stop offset="1" stop-color="#aca082"/>
    </linearGradient>
  </defs>
  <path class="cls-19" d="m0,0v1128.7h1541.81c.76-.59,1.76-.96,2.99-.96,11.9,0,23.79.21,35.68.45,12.2-.99,24.53-.82,36.75-1.09,12.46-.28,24.92-.24,37.38-.08,19.19.26,38.38.81,57.58,1.09.57-.23,1.22-.37,1.96-.37h14.56c.55,0,1.05.08,1.5.21.8-.78,1.91-1.29,3.35-1.29,18.86,0,37.71.1,56.57.74,33.1,1.13,66.06,1.38,99.17.59,32.58-.78,65.17-.68,97.74.29.73.02,1.37.18,1.94.42h17.59V0H0Z"/>
  <g>
    <path class="cls-37" d="m691.19,433.29c-10.42,5.92-22.41,45.34-24.93,57.66-.14.65,2.99,3.62,2.49,6.41-3,16.42-20.78,53.05,10.87,46.76,18.76,9.83-1.09,11.87-12.58,19.91-38.71,27.05-74.85,77.44-110.8,110.66-12.73,16.04-14.76,36.95-23.73,55.1-4.01,8.11-18.34,17.33-12.29,29.66-7.59,8.32-14.97,16.94-22.4,25.42-2.04.16-2.52,2.25-4.74,2.14-2.48-.99,5.71-18.76,8.05-19.54-4.49-.94-.16-9.36.1-16.17,1.13-29.35-6.9-57.64-13.26-86.05-4.77-2.95-7.38-18.28-9.25-22.3-.41-.88-2.03.23-2.45-.65-4.35-9.13-10.33-22.99-15.74-31.33-1.96-3.03-33.63-41.93-35.65-43.91,15.87-19.19,24.13-18.28,15.82-45.96,2.25.26,5.28,1.15,7.33,1.94,12,4.61,14.4,9.81,27.36,1.23,3.41-2.26,49.01-52.38,55.59-59.99,3.49-4.04,22.56-31.63,24.57-31.62,5.52.02,5.87,14.64,3.58,20.01-2.28,5.34-40.95,44.03-48.99,52.85-4.88,5.36-28.99,30.11-29.98,33.33-1.61,5.26,1.65,29.76,4.68,33.63,1.39,1.77,37.38,26.08,38.89,17.87,16.87-18.65,119.55-114.57,124.67-121.62,9.49-13.06-1.22-27.07-7.6-39.37.7-1.61,1.99-1.84,2.74-3.45,1.49-3.19,13.27-17.64,13.25-19.48-.07-6.93-18.73-19.26-27.53,6.29-4.85-3.64-10.29-1.17-22.81-15.45,10.12-9.6,20.23-19.2,30.35-28.79,9.67,11.25,26.64,15.72,34.97,26.75,2.66,3.53,18,33.45,19.44,38.06h-.01Z"/>
    <path class="cls-37" d="m700.79,562.78c-4.18,3.06-9.55,5.46-13.77,8.63-22.66,20.49-45.43,40.79-67.97,61.41-6.7,6.12-16.43,10.93-17.19,11.64-1.35,1.25-18.8,20.65-24.94,27.09-21.58,22.67-28.93,18.14-18.15,45.87-12.2,14.6-25.75,27.99-38.55,42.03-6.05-12.33,8.28-21.54,12.29-29.66,8.98-18.14,11-39.05,23.73-55.1,35.95-33.22,72.09-83.62,110.8-110.66,11.51-8.04,31.34-10.09,12.58-19.91,6.21-1.23,5.87-3.41,6.18-3.58,5.23-3.18,61.51-55.13,64.17-51.96,12.91,47.24-20.83,53.49-49.17,74.22v-.02Z"/>
    <g>
      <path class="cls-22" d="m509.77,575.93c6.92-5.27,9.09-18.83,12.98-26.34,18.75-36.24,77.98-88.61,104.15-126.01,8.01,10.47,17.67,29.99,10.39,41.67-4.42,7.08-101.96,102.57-118.72,116.92-3.07-1.95-6.04-3.83-8.79-6.25h-.01Z"/>
      <path class="cls-34" d="m620.87,416.76c-40.34,47.15-78.68,97.83-125.87,138.01-1.56-3.53-6.64-16.19-6.23-18.88,9.49-9,17.43-19.51,26.25-29.1,15.16-16.48,31.68-33.14,47.47-49.08,5.57-5.61,39.74-41.19,42.54-42.28,3.83-1.5,12.25-.45,15.84,1.33h0Z"/>
      <path class="cls-2" d="m626.89,423.59c-26.16,37.39-85.4,89.76-104.15,126.01-3.89,7.51-6.06,21.07-12.98,26.34-5.04-4.43-12.07-15.02-14.78-21.15,47.2-40.18,85.54-90.86,125.87-138.01,4.56,2.24,5.33,5.9,6.03,6.82h.01Z"/>
    </g>
    <path class="cls-31" d="m691.19,433.29c.29.93.39,14.05,2.8,19.02-24.17,45.86-11.67,37.26-10.41,44.26.66,3.66-16.47,28.8-11.14,35.19-7.67,1.54-.53,9.63,2.85,10.94,6.73,2.62,5.39-4.72,10.5-2.18-.3.19.03,2.35-6.18,3.58-31.65,6.29-13.87-30.35-10.87-46.76.51-2.79-2.61-5.76-2.49-6.41,2.53-12.32,14.51-51.74,24.93-57.66h0Z"/>
    <path class="cls-5" d="m325.08,458.6c-10.82,14.22,36.11,12.9,52.72,17.88,1.45.44,22.46,10.35,27.44,12.75,3.04,1.47,6.07,3.45,9.11,5.03-4.01,4.34,1.15,1.31,1.68,2.54,1.67,3.91-1.43,4.62-1.3,4.88.92,1.76,30.49,14.91,33.27,21.35-2.05-.78-5.08-1.68-7.33-1.94-2.01-8.17-8.75-5.74-9.34-6.13-29.76-19.66-42.7-25.48-77.22-35.86-15.31-4.61-25.66.25-35.88-14.46,2.94-1.56,4.1-4,6.82-6.03h.01Z"/>
    <g>
      <path class="cls-34" d="m531.17,356.96c-10.69,11.45-21.39,22.89-32.08,34.34-18.44-8.43-48.48-18.53-68.58-19.2-47.48-1.59-69,24.29-8.74-28.18l6.64-1.38c34.82-.31,69.94,1.28,102.75,14.41h.01Z"/>
      <path class="cls-22" d="m529.34,409.25c-4.89-3.24-9.52-6.79-14.68-9.64,10.62-11.82,21.24-23.63,31.85-35.45,15.97,8.73,39.66,28.15,56.42,38.45-11.71,13.01-23.43,26.01-35.15,39.01-13.97-15.87-21.6-21.22-38.44-32.38h-.01Z"/>
      <path class="cls-2" d="m546.51,364.16c-10.62,11.82-21.24,23.63-31.85,35.45-3.99-2.19-12.12-6.73-15.56-8.3,10.69-11.45,21.39-22.89,32.08-34.34,5.15,2.07,10.46,4.53,15.33,7.19h0Z"/>
    </g>
    <path class="cls-5" d="m499.1,391.31c3.45,1.58,11.57,6.1,15.56,8.3,5.17,2.84,9.8,6.4,14.68,9.64-18.84-10.51-7.92,1.59-21.51-3.61-3.68-2.18-7.75-3.73-11.56-5.67-11.57-5.88-21.55-9.98-33.99-13.7-6.38-8.6-36.19-5.18-31.77-14.16,20.09.67,50.13,10.77,68.58,19.2h0Z"/>
    <path class="cls-29" d="m643.52,425.89c-4.83,3.46-7.26-7.93-14.28-13.18,8.8-25.55,27.45-13.22,27.53-6.29.02,1.84-11.76,16.29-13.25,19.48h0Z"/>
    <path class="cls-31" d="m562.48,457.72c-15.79,15.94-32.3,32.6-47.47,49.08l-4.88-1.3c8.05-8.82,46.72-47.51,48.99-52.85l3.35,5.07h0Z"/>
    <path class="cls-8" d="m550.97,757.67c-4.92,4.53-9.34,9.05-14.52,13.4-5.8-.14-11.59-.28-17.39-.43,15.3-17.62,11.25-23.36,31.91-12.97h0Z"/>
    <g>
      <path class="cls-18" d="m751.18,400.07c-13.45,17.53-86.38,110.35-62.26,116.73-.98,1.36-1.72,2.74-2.62,4-.66.93-1.16,1.81-1.76,2.68-1.93,2.79-4.2,5.61-6.36,8.25-4.21,1.18-5.15-.07-5.76.04-5.33-6.39,11.81-31.52,11.14-35.19-1.26-7-13.76,1.6,10.41-44.26,10.4-19.72,24.48-37.99,36-57.07,2.97-1.3,17.52,3.21,21.18,4.83h.02Z"/>
      <path class="cls-24" d="m686.3,520.81c.9-1.26,1.65-2.65,2.62-4,19.28-26.65,36.68-54.1,54.54-81.68,6.07-9.37,12.95-18.24,18.39-28.04.67.94,8.41,17.41,8.44,18.42-14.23,27.03-29.91,53.33-51.93,74.8-2.65,2.58-22.01,20.12-23.32,20.99-4.36,2.89-3.34,3.79-8.75-.49h-.01Z"/>
      <path class="cls-25" d="m754.96,401.6c-4.72,11.3-15.05,23.52-11.49,33.53-17.86,27.58-35.25,55.02-54.54,81.68-24.13-6.38,48.8-99.21,62.26-116.73,1.12.49,2.77.92,3.77,1.53h0Z"/>
      <path class="cls-28" d="m761.86,407.08c-5.44,9.8-12.32,18.67-18.39,28.04-3.56-10,6.76-22.23,11.49-33.53,3.58,2.16,4.13,1.54,6.91,5.49h0Z"/>
    </g>
    <g>
      <path class="cls-31" d="m700.79,562.78c-2.24,6.78-13.32,10.74-4.76,15.98-12.51,2.65-21.59,16.47-32.49,24.05-1.2,3.76,5.9,7.24,8.38,9.79,3.22,3.31,6.57,6.41,10.03,9.45-5.36,1.3-4.78-5.74-11.98-2.12,2.83-2.33-7.19-14.82-14.36-10.86-2.45,1.35-33.56,32.9-40.47,38.39-.89,1.55,1.69,3.85,2.81,5.18-1.79,1.41,3.62,3.63-2.85,2.91-2.61-1.82-5.26-4.7-7.23-4.26-5.9,7.22-14.64,12.49-20.79,19.31-3.39.32-6.79.64-10.18.96,6.13-6.45,23.59-25.83,24.94-27.09.76-.71,10.48-5.52,17.19-11.64,22.55-20.62,45.33-40.92,67.97-61.41,4.22-3.17,9.59-5.57,13.77-8.63h0Z"/>
      <path class="cls-36" d="m669.98,619.92c-3.33,1.67-32.63,34.68-41.11,40.83-1.23-1.18-10.48-7.59-10.91-8.11-1.12-1.34-3.7-3.64-2.81-5.18,6.91-5.49,38.02-37.05,40.47-38.39,7.18-3.96,17.19,8.53,14.36,10.86h.01Z"/>
      <path class="cls-37" d="m681.96,622.05c.97.86,2.11,1.81,2.91,2.85-4.91,5.84-38.77,45.41-41.63,46.71-9.43,4.27-10.01-6.69-14.36-10.86,8.49-6.16,37.78-39.16,41.11-40.83,7.2-3.62,6.62,3.43,11.98,2.12h-.01Z"/>
      <g>
        <path class="cls-3" d="m684.86,624.9c-.78-1.05-1.92-2-2.91-2.85-3.46-3.04-6.82-6.13-10.03-9.45,12.5-9.24,24.48-22.15,34.29-34.8.7.13,10.22,4.78,10.34,5.35.79,3.73-27.66,36.95-31.69,41.76h0Z"/>
        <path class="cls-4" d="m696.03,578.76c3.84-.82,6.09-1.72,10.18-.96-9.81,12.66-21.79,25.56-34.29,34.8-2.48-2.55-9.58-6.03-8.38-9.79,10.9-7.58,19.98-21.39,32.49-24.05Z"/>
      </g>
      <g>
        <path class="cls-24" d="m623.81,664.11c4.39,4.02,9.49,7.51,13.93,11.53-7.77,7.96-15.53,15.91-23.3,23.87-3.14.76-12.94-9.84-15.7-11.74,8.35-7.89,16.71-15.77,25.07-23.66h-.01Z"/>
        <path class="cls-4" d="m615.1,655.54c.33.23,2.13,2.81,5.8,5.72-8.66-.63-21.61,21.79-24.75,22.44-2.57.53-2.54-4.42-5.43-1.18-1.17-.87-9.19-4.84-9.23-5.58,2.44-1.62,3.7-4.25,5.6-6.35,6.15-6.82,14.88-12.08,20.79-19.31,1.96-.44,4.62,2.45,7.23,4.26h-.01Z"/>
        <path class="cls-23" d="m620.9,661.25c.97.77,1.96,2.01,2.91,2.85-8.35,7.89-16.71,15.77-25.07,23.66-2.68-1.84-5.32-3.26-8.02-5.26,2.89-3.24,2.86,1.71,5.43,1.18,3.14-.65,16.08-23.07,24.75-22.44h0Z"/>
      </g>
    </g>
    <g>
      <path class="cls-20" d="m594.74,268.8c2.27.41,4.65,1.13,6.77,2.06,5.43-19.05,25.17-34.06,18.31-39.56,8.6,2.12,11.48-7.85,17.83-14.09,9.48-9.3,25.08-21.16,27.24-29.88,10.17-2.27,17.2-13.08,33.82-23.17,1.38-.7.69,4.14.37,4.54-3.42,4.2-38.55,31-46.16,47.07,9.64,10.43,15.19,26.78,27.82,34.01.17.09-.22,1.92,2.35,2.97.66-1.82,2.03-1.36,2.54-1.68-2.64,3.49,16.52,23.13,18,22.78,13.9-20.8,40.06-46.79,49.77-68.58.28-.63-.96-2.66-.69-3.31,1.83-4.33,6.38-10.24,7.42-14.22,2.35-8.91,1.76-16.48-3.84-24-1.48-2.01-2.39-3.34-4.46-4.84,7.13.31,5.09,7.09,11.48-5.84,12.91,11.87,8.76,45.21,1.93,37.08,7.03,11.42-13.88,44.13-22.53,52.55-2.8,2.72-3.49,6.74-8.06,2.83,7.2,8.05-11.29,19.34-23,33.61-8.62,10.5-16.36,21.81-25.01,32.29,20.5-1.07,31.27,31.54,37.02,33.83,7.66,3.06,3.56-15.12,25.34,13.76,12.71-13.79,25.41-27.58,38.11-41.36,8.13-6.48,42.24-35.3,49.37-17.75,3.92,9.68-3.97,21.54-5.13,25.28-.38,1.23,1.61,1.86,1.57,1.99-.83,2.51-17.4,36.46-21.7,45.45-7.2,15.05-13.94,30.61-24.37,43.7,7.15,8.83,8.87,20.79,13.41,31.24,1.6,3.69,3.6,5.74,6.38,8.48.94,3.11-.88,3.76-.91,12.3-.14,41.71-22.79,63.73-53.72,88.43-7.09-.28-48.73,2.19-41.76,12.71.6.9,13.37,8.74,16.71,13.83-26.64,50.13-71.41,86.32-110.47,126.16-14.01,14.3-7.81,23.41-43.22,25.12-6.56,8.63-14.35,15.79-22.3,23.09-20.66-10.39-16.6-4.65-31.91,12.97,5.8.14,11.59.28,17.39.43-2.36,1.99-15.76,15.02-17.06,15.07-5.4.25-.17-9.36-10.54-3.57-4.02-.38-3.56,1.71-11.06,2.3,7.44-8.47,14.81-17.09,22.4-25.42,12.81-14.05,26.36-27.43,38.55-42.03-10.77-27.73-3.43-23.2,18.15-45.87,3.39-.32,6.79-.64,10.18-.96-1.89,2.1-3.17,4.73-5.6,6.35.04.74,8.07,4.71,9.23,5.58,2.7,2,5.34,3.42,8.02,5.26,2.76,1.89,12.56,12.49,15.7,11.74,7.77-7.96,15.53-15.91,23.3-23.87-4.43-4-9.54-7.5-13.93-11.53-.93-.86-1.92-2.09-2.91-2.85-3.67-2.91-5.47-5.49-5.8-5.72,6.48.72,1.08-1.48,2.85-2.91.44.52,9.68,6.94,10.91,8.11,4.35,4.17,4.94,15.13,14.36,10.86,2.85-1.3,36.71-40.86,41.63-46.71,4.03-4.8,32.48-38.02,31.69-41.76-.13-.56-9.64-5.21-10.34-5.35-4.09-.76-6.34.15-10.18.96-8.57-5.25,2.52-9.21,4.76-15.98,28.33-20.73,62.07-26.98,49.17-74.22-2.65-3.17-58.94,48.78-64.17,51.96-5.11-2.54-3.77,4.81-10.5,2.18-3.39-1.32-10.52-9.41-2.85-10.94.61-.13,1.55,1.14,5.76-.04,4.72-1.32,17.95-4.34,6.36-8.25.6-.86,1.09-1.75,1.76-2.68,5.4,4.27,4.39,3.39,8.75.49,1.31-.87,20.67-18.4,23.32-20.99,22.02-21.47,37.7-47.77,51.93-74.8-.03-1.01-7.78-17.48-8.44-18.42-2.78-3.95-3.32-3.32-6.91-5.49-1-.61-2.66-1.03-3.77-1.53-3.67-1.62-18.22-6.12-21.18-4.83-11.54,19.08-25.6,37.35-36,57.07-2.41-4.99-2.51-18.09-2.8-19.02-1.44-4.61-16.77-34.53-19.44-38.06-8.33-11.04-25.3-15.52-34.97-26.75-10.12,9.6-20.23,19.2-30.35,28.79,12.52,14.27,17.97,11.81,22.81,15.45,7,5.25,9.45,16.64,14.28,13.18-.75,1.61-2.04,1.84-2.74,3.45,6.38,12.3,17.09,26.29,7.6,39.37-5.12,7.04-107.8,102.96-124.67,121.62-1.5,8.2-37.5-16.1-38.89-17.87-3.03-3.86-6.29-28.37-4.68-33.63.99-3.22,25.09-27.98,29.98-33.33l4.88,1.3c-8.81,9.58-16.76,20.1-26.25,29.1-.41,2.7,4.67,15.35,6.23,18.88,2.7,6.13,9.74,16.72,14.78,21.15,2.75,2.42,5.73,4.28,8.79,6.25,16.77-14.36,114.31-109.85,118.72-116.92,7.29-11.67-2.38-31.2-10.39-41.67-.7-.92-1.47-4.58-6.03-6.82-3.6-1.77-12.02-2.83-15.84-1.33-2.79,1.1-36.98,36.66-42.54,42.28l-3.35-5.07c2.29-5.37,1.93-19.99-3.58-20.01-2.01,0-21.08,27.59-24.57,31.62-6.57,7.61-52.17,57.73-55.59,59.99-12.96,8.57-15.36,3.37-27.36-1.23-2.79-6.43-32.36-19.6-33.27-21.35-.14-.26,2.96-.98,1.3-4.88-.52-1.23-5.7,1.8-1.68-2.54,10.4,5.38,19.92,12.66,30.26,17.93,9,4.6,11.32,9.6,23.4,4.37,5.2-2.26,69-71.71,76.67-83.4-5.82-4.95-11.87-9.5-17.93-14.15-5.09-3.9-13.66-10.24-18.93-13.37,13.59,5.19,2.66-6.91,21.51,3.61,16.84,11.16,24.47,16.51,38.44,32.38,11.71-13.01,23.43-26.01,35.15-39.01-16.76-10.29-40.46-29.72-56.42-38.45-4.88-2.66-10.18-5.13-15.33-7.19-32.82-13.14-67.93-14.73-102.75-14.41l-6.64,1.38c-60.26,52.46-38.74,26.59,8.74,28.18-4.42,8.97,25.4,5.55,31.77,14.16-8.37-2.5-28.65-8.56-35.83-8.71-.89-.02.02,2.32-.09,2.33-3.08.06-6.22-.41-9.3-.38-3.72-1.89-7.68,2.42-10.6,4.5-4.4,1.77-5.49-.06-5.76.04,6.97-4.65-16.64,3.25-31.74,5.43-7.81,11.84-68.02,61.35-70.61,65.41-3.44,5.42,17.97-2.44,33.08-4.57l1.8,3.08c-1.98.97-6.29,3.77-8.15,5.15-2.73,2.03-3.89,4.47-6.82,6.03-.88-1.26.26-5.08-3.04-6.29-29.4,3.98-41.92,14.83-59.62,37.76-7.49,4.16,23.56,4.55,39.15,8.02,14.87,3.3,57.38,17.47,69.72,24.73,3.49,2.06,12.94,7.95,2.72,7.51-1.05-.04-7.11-5.21-9.34-6.13-28.2-11.58-81.81-32.43-110.03-24.43-4.04-5.17-1.62-10.67-7.09-14.67,1.31.77,5.83,3.54,7,3.16,23.95-34.04,59.92-54.77,87.95-84.59-3.99-9.94-7.97-19.87-11.96-29.81,8.65-8.33,17.3-16.67,25.95-25,1.71-3.37,6.2-51.52,7.96-61.63.29-1.69,3.44-2.54,3.73-4.23,3.79-21.73,5.53-44.1,9.36-65.96,1-5.71,3.18-9.26,3.46-11.1,35.88-20.57,16.64,72.9,26.47,91.38,20.77-16.08,66.61-58.4,93.77-48.3,16.96,6.3,6.46,24.44,8.83,25.85,32.65,5.49,25.1-18.29,64.31-17.98,9,.07,18.49,4.32,27.17,5.88l.04.05Z"/>
      <g>
        <path class="cls-24" d="m780.55,433.18c2.91-.19,10.66,25.43,11.29,29.37,6.95,43.44-39.56,96.02-56.69,90.78l-.46-2.22c27.07-11.38,39.31-53.75,20.47-76.33,8.46-13.86,16.92-27.73,25.39-41.61h0Z"/>
        <g>
          <path class="cls-23" d="m552.36,272.99c10.42-3.39,34.79,3.9,46.33,6.52-.32,6.79-.64,13.59-.96,20.38-19.2-6.34-38.28-13.54-58.79-13.74.67-3.53,11.31-12.48,13.41-13.17h.01Z"/>
          <g>
            <path class="cls-23" d="m583.49,303.43c-10.26,17.59-33.05,32.11-42.82,49.26-27.31-11.54-52.1-13.46-52.93-16.1,10.97-16.08,26.02-29.11,40.22-42.38,18.72-.09,38.27,1.7,55.55,9.22h-.01Z"/>
            <path class="cls-28" d="m600.85,314.81c-13.62,13.7-25.35,32.7-38.4,48.35-7-3.92-14.38-7.34-21.78-10.47,9.77-17.16,32.56-31.67,42.82-49.26,5.64,2.46,17.47,7.55,17.36,11.39h0Z"/>
            <path class="cls-24" d="m575.8,371.92c3.4-8.31,26.14-34.54,26.96-36.75,14.87,38.67,30.4,21.3-3.49,52.62-1.41.14-20.31-13.95-23.48-15.89h.01Z"/>
            <path class="cls-12" d="m600.85,314.81c.98,7.63,4.61,13.23,1.92,20.36-.84,2.21-23.58,28.43-26.96,36.75-4.57-2.77-10.14-6.96-13.36-8.76,13.04-15.64,24.78-34.64,38.4-48.35Z"/>
          </g>
        </g>
        <g>
          <path class="cls-24" d="m676.9,386.67c11.93-12.86,23.87-25.72,35.82-38.57,6.95,9.93,12.99,20.15,16.95,31.66-9.86,14.54-19.72,29.08-29.58,43.62-8.91-8.4-21.7-34.86-23.19-36.7Z"/>
          <path class="cls-28" d="m698.62,330.26c1.53,1.3,11.82,14.6,14.09,17.83-11.93,12.86-23.87,25.72-35.82,38.57-1.27-1.57-16.68-13.38-20.71-16.46,14.15-13.32,28.3-26.64,42.44-39.95h0Z"/>
          <path class="cls-24" d="m698.62,330.26c-14.15,13.32-28.3,26.64-42.44,39.95-1.4-1.08-10.37-5.52-10.57-6.46,3.99-5.7,35.17-41.75,38-41.92,3.88,3.56,11.63,5.55,15.01,8.41h0Z"/>
        </g>
        <path class="cls-23" d="m493.81,290.91c1.48-.54,22.26-1.35,22.59.5-6.09,3.24-30.8,31.99-32.97,32.79-1.17.44-21.12-.39-25.03-1.14,6.58-4.73,32.81-31.2,35.42-32.16h-.01Z"/>
        <g>
          <path class="cls-34" d="m822.91,306.74c-11.45,18.91-22.9,37.82-34.35,56.73-2.63-1.7-17.94-12.01-17.93-14.15,12.05-12.74,35.68-39.34,52.29-42.58Z"/>
          <path class="cls-7" d="m788.55,363.47c11.45-18.91,22.9-37.82,34.35-56.73.17-.03,1.02-2.84,3.43-.14-7.86,21.76-19.94,41.82-28.99,63.11-.7.22-7.56-5.44-8.79-6.25h0Z"/>
        </g>
        <path class="cls-28" d="m442.01,338.58c.43-.38,3.48-5.98,7.46-8.48,12.41-7.78,11.69-3.5,26.44-3.19,4.13,16.02-12.37,9.22-33.91,11.65h.01Z"/>
        <g>
          <path class="cls-24" d="m601.9,697.49c5.29,4.55,11.64,1.41,4.2,14.69-11.09,19.81-37.32,17.52-38.75-14.44,31.74-7.14,31.76,19.57,34.55-.25Z"/>
          <path class="cls-4" d="m601.9,697.49c-2.78,19.83-2.8-6.89-34.55.25,15.31-18.81,17.72-14.73,34.55-.25Z"/>
        </g>
        <path class="cls-8" d="m562.37,726.46c15.76-3.44-6.92,22.52-9.13,22.66-.48.03-7.52-5.44-7.58-5.93-.13-1.18,15.55-16.48,16.71-16.73Z"/>
        <g>
          <path class="cls-33" d="m660.3,240.18c-16.76,25.59-30.78,53.06-45.69,79.84-9.04-45.79,1.25-64.82,31.94-98.9,3.21-.33,11.61,16.26,13.76,19.05h-.01Z"/>
          <path class="cls-24" d="m670.4,316.52c-3.95,4.96-33.58,38.98-36.14,39.8-3.77,1.2-11.57-7.64-13.15-10.53-4.36-8.01-1.81-8.95-1.95-9.4,9.47-12.88,17.85-26.5,26.27-40.06,8.32,6.73,16.64,13.46,24.96,20.19h.01Z"/>
          <path class="cls-28" d="m671.26,254.05c-7.54,12.56-15.71,24.7-23.42,37.15-.9,1.45-1.49,3.67-2.39,5.11-8.43,13.55-16.82,27.18-26.27,40.06-1.83-5.64-3.4-10.49-4.55-16.36,14.91-26.79,28.93-54.25,45.69-79.84,3.58,4.65,7.33,9.24,10.95,13.87h-.01Z"/>
          <path class="cls-24" d="m675.88,309.61c-9.35-6.13-18.7-12.26-28.04-18.39,7.71-12.46,15.89-24.59,23.42-37.15,3.22,4.11,24.16,25.7,24.24,27.83-7.21,8.77-12.85,18.63-19.62,27.72h0Z"/>
          <path class="cls-20" d="m675.88,309.61c-1.76,2.35-3.66,4.61-5.49,6.91-8.32-6.73-16.64-13.46-24.96-20.19.9-1.44,1.5-3.66,2.39-5.11,9.35,6.13,18.7,12.26,28.04,18.39h.01Z"/>
        </g>
        <g>
          <path class="cls-23" d="m776.82,362.46c-2.29.42,1.54,2.14.8,3.87-1.56,3.68-17.7,24.05-17.75,25.6-.1,3.94,2.91,2.12,5.23,2.95-.08.09.66,1.44-1.99,1.57-5.2-3.31-26.97-6.55-27.42-9.88,10.26-10.78,20.51-21.56,30.77-32.34,4.95.31,9.83,7.83,10.36,8.22Z"/>
          <path class="cls-24" d="m763.12,396.44c2.64-.13,1.9-1.46,1.99-1.57,7.11-8.47,12.07-18.12,18.62-26.93,2.59,2.57,11.37,8.3,11.72,11.99-5.23,10.89-10.47,21.78-15.71,32.67-2.72,1.19-12.1-13.28-16.62-16.16h0Z"/>
          <path class="cls-23" d="m783.72,367.93c-6.55,8.81-11.52,18.47-18.62,26.93-2.32-.83-5.33.99-5.23-2.95.04-1.56,16.2-21.92,17.75-25.6.73-1.72-3.08-3.45-.8-3.87,2.87,2.17,3.38,1.98,6.91,5.49h0Z"/>
        </g>
        <g>
          <g>
            <path class="cls-24" d="m467.87,302.07c-5.01-1.91-8.62-12.27-12.29-14.75,9.75-8.56,19.51-17.13,29.26-25.69,31.86-.33-9.93,33.35-16.97,40.43h0Z"/>
            <path class="cls-32" d="m484.84,261.64c-9.75,8.56-19.51,17.13-29.26,25.69-.15-.1-.43-1.32-2.68-1.76.02-2.03-4.74-6.09-4.81-6.5-.44-2.83,21.19-17.28,36.75-17.43Z"/>
          </g>
          <path class="cls-31" d="m449.48,330.11c-3.98,2.5-7.04,8.1-7.46,8.48-5.42,4.79-17.67,3.64-16.49,1.12,1.42-1.36,4.51-1.94,4.74-2.14,8.14-6.95,15.33-14.8,23.09-22.09-1.3,4.88-2.59,9.76-3.88,14.64h0Z"/>
          <g>
            <path class="cls-37" d="m452.91,285.57c2.24.44,2.52,1.65,2.68,1.76,3.67,2.48,7.28,12.83,12.29,14.75-4.72,4.74-9.68,8.85-14.52,13.4-7.75,7.29-14.96,15.14-23.09,22.09l-23.55,6.04c-3.8-1.54-.64-3.42-1.93-6.52.02-.51.56-2.34.65-2.45,11.67-13.3,28.87-28.07,41.67-40.95,1.95-1.08-.79-5.98-2.16-7.63,3.18,1.55,6.51-.78,7.97-.5h-.01Z"/>
            <path class="cls-11" d="m443.6,285.19c.95.74,1.29.82,1.34.88,1.36,1.65,4.12,6.55,2.16,7.63-12.79,12.88-29.99,27.64-41.67,40.95-.73-7.82-6.54-19.37-2.52-26,4.92-3.4,32.91-25.21,35.02-25.73,3.23-.79,3.58.67,5.66,2.28h0Z"/>
            <path class="cls-31" d="m443.6,285.19c-2.08-1.62-2.44-3.07-5.66-2.28-2.11.52-30.1,22.33-35.02,25.73-4.02,6.64,1.79,18.18,2.52,26-.08.09-.63,1.92-.65,2.45-.13-.29-1.41,2.54-3.01-3.41-.87-3.21-2.85-22.84-1.3-25.68,1.34-2.45,41.47-32.88,46.75-27.59,2.12,2.13-5.59,1.6-3.62,4.79h-.01Z"/>
          </g>
        </g>
        <g>
          <path class="cls-14" d="m379.25,222.45c1.91-1.39,5.15.5,6.01,3.94.83,3.3-1.86,66.13-5.04,67.37-.55.22-8.94-1.65-9.78-5.47-.72-3.24,6.13-63.88,8.81-65.84h0Z"/>
          <g>
            <path class="cls-4" d="m380.12,296.07c-4.57,22.17-4.93,44.72-6.81,67.16-.37,4.34-1.67,8.72-1.89,13.08-7.11,6.43-15.52,11.35-22.9,17.44-3.51-5.8-7.02-11.61-10.53-17.42,3.48-2.76,16.58-9.8,18.17-12.43,2.28-3.73,9.31-65.2,11.23-68.08,3.21-4.8,8.67-1.23,12.74.24h-.01Z"/>
            <path class="cls-12" d="m389.06,305.75c3.23,15.29,3.18,31.24,6.22,46.57-.27,1.82-20.53,20.97-23.85,23.98.22-4.37,1.54-8.75,1.89-13.08,7.87-1.71,2.29-22.24,12.71-33.2,1.24-15.48-6.38-25.74,3.03-24.28h0Z"/>
            <path class="cls-28" d="m389.06,305.75c-9.41-1.46-1.79,8.79-3.03,24.28-10.42,10.96-4.84,31.49-12.71,33.2,1.88-22.44,2.25-44.98,6.81-67.16,2.96,1.08,6.29,1.01,8.77,3.37,1.17,2.49-.28,4.23.16,6.31h0Z"/>
          </g>
          <path class="cls-8" d="m348.52,393.75c-.84.69-2.7,4.43-6.04,7.02-10.99-17.97-12.27-18.27-4.5-24.43,3.51,5.8,7.02,11.61,10.53,17.42h.01Z"/>
        </g>
        <path class="cls-24" d="m678.19,531.72c2.16-2.62,4.43-5.46,6.36-8.25,11.59,3.9-1.64,6.92-6.36,8.25Z"/>
        <path class="cls-33" d="m734.58,356.23c12.82,14.62,9.56,19.15-.44.67l.44-.67Z"/>
      </g>
    </g>
    <g>
      <path class="cls-36" d="m318.26,464.63c10.22,14.7,20.57,9.86,35.88,14.46,34.53,10.39,47.46,16.2,77.22,35.86-6.36,13.65-14.94,26.22-25.87,36.52-27.26-21.03-76.21-41.61-109.87-48.68-13-2.74-29.01-2.77-40.03-6.68,17.7-22.93,30.22-33.78,59.62-37.76,3.3,1.21,2.15,5.03,3.04,6.29h0Z"/>
      <path class="cls-29" d="m440.71,521.07c8.3,27.67.05,26.78-15.82,45.96-.89-.88-16.82-13.6-19.39-15.58,10.91-10.29,19.5-22.87,25.87-36.52.61.4,7.34-2.04,9.34,6.13Z"/>
    </g>
    <g>
      <path class="cls-20" d="m240.72,491.11c5.47,4,3.04,9.5,7.09,14.67,28.22-7.99,81.83,12.85,110.03,24.43,2.24.92,8.31,6.08,9.34,6.13,10.22.44.78-5.46-2.72-7.51-12.35-7.26-54.85-21.42-69.72-24.73-15.59-3.47-46.64-3.86-39.15-8.02,11.02,3.91,27.03,3.95,40.03,6.68,33.67,7.09,82.62,27.65,109.87,48.68,2.57,1.99,18.5,14.7,19.39,15.58,2.02,1.99,33.68,40.88,35.65,43.91,5.41,8.34,11.38,22.2,15.74,31.33.42.88,2.04-.23,2.45.65,1.86,4.01,4.47,19.34,9.25,22.3,6.36,28.41,14.39,56.71,13.26,86.05-.26,6.8-4.6,15.23-.1,16.17-2.34.79-10.52,18.55-8.05,19.54,2.24.1,2.71-1.99,4.74-2.14,7.49-.57,7.02-2.68,11.06-2.3-27.13,15.14-52.19,32.08-76.35,51.62-33.35,16.02-64.74,35.56-96.16,53.42-12.18,5.42-24.07,11.46-36.31,16.76-48.3,20.92-108.35,39.51-160.32,47.14-12.78,1.87-71.51,6.86-79.94,1.03-3.53-2.44-14.93-24.4-16.38-28.89-9.7-30.12-5.1-65.16-.26-95.67.2-1.24-2.4-2.06-2.03-4.19,1.58-8.97,14.97-46.88,19.29-57.06,8.93-21.01,21.15-40.71,31.1-61.24,10.49-7.99,20.29-36,27.66-47.27.18-.27,3.22.9,4.42-.92,9.2-13.91,13.41-17.51,14.04-18.49.49-.77,1.02-10.07,2.12-11.98,1-1.72,12.08-6.33,13.35-21.8,5.55,1.14,13.84-16.99,17.15-17.4.61-.07,4.76,3.58,5.34,3.5,1.92-.28,11.87-17.41,14.24-20.25,16.9-20.35,26.16-20.71,12.18-30.21-21.98,16.01-43.2,4.7-40.04-23.4,1.63-14.42,27.67-50.9,44.13-51.26,5.81-7.92,39.74-29.39,40.24-8.94.28,11.84-25.07,22.53-5.61,34.04h-.02Z"/>
      <g>
        <g>
          <path class="cls-22" d="m190.65,816.36c2.08,2.56,23.9,20.29,25.51,20.08,12.32-16.69,90.87-89,94.53-94.6,7.9-12.09-.94-44.6-3.65-59.21,13.54,8.75,26.85,17.03,37.32,29.73,29.54,35.84,50.81,124.87,6.47,156.08-41.15,28.97-192.1,80.88-248.14,76.92,29.49-15.36,67.34-37.42,85.44-66.19,15.74-25.02,6.95-35.52,2.53-62.8h-.01Z"/>
          <path class="cls-34" d="m269.23,661.65c-32.31,40.38-70.52,77.05-91.64,125.14l-1.11.23c-3.38-6.28-8.22-14.3-14.2-18.38-13.53-9.27-47.79-8.61-62.02-1.54-25.7,12.78-56.25,110.99-50.77,141.44-7.36-25.12-3.39-59.05,2.03-84.61,13.22-62.31,55.88-128.39,93.01-179.63-2.95-7.87,25.87-50.91,24.07-39.6-.62,3.86-21.58,27.45-16.17,30.46,10.99,2.58,23.89.6,31.96,9.51,3.18.05,2.8-3.78,7.28-3.81,30.86-.24,50.98,8.2,77.56,20.8h0Z"/>
          <g>
            <path class="cls-35" d="m301.69,679.12c9.18,6.48-2.61,22.63-8.08,30.51-4.05,5.84-74.68,83.83-80.2,85.85-10.62,3.9-25.94-4.41-35.83-8.71,21.12-48.08,59.33-84.76,91.64-125.14,11.22,5.32,21.85,10.96,32.46,17.47h0Z"/>
            <path class="cls-2" d="m307.03,682.62c2.72,14.61,11.55,47.12,3.65,59.21-3.66,5.6-82.21,77.9-94.53,94.6-1.61.21-23.42-17.52-25.51-20.08-2.53-3.11-4.59-6.15-6.6-9.58-1.82-6.82-4.22-13.53-7.57-19.76l1.11-.23c9.9,4.3,25.21,12.6,35.83,8.71,5.52-2.03,76.15-80.01,80.2-85.85,5.47-7.89,17.25-24.03,8.08-30.51,1.89,1.16,3.52,2.33,5.34,3.5h.01Z"/>
          </g>
          <path class="cls-22" d="m315.37,672.82c3.87-5.42,7.75-10.84,11.62-16.25,46.38,28.06,75.72,62.32,82.27,118.43,2.75,23.61-2.86,68.8-29.11,76.4,26.78-68.42-5.95-138.86-64.77-178.57h-.01Z"/>
          <g>
            <path class="cls-1" d="m172.18,805.21c-28.75,47.99-56.35,109.01-106.39,137.43-24.66-21.35,11.89-157.88,43.81-169.41,15.51-5.6,45.25-1.87,55.24,13.32,3.63,5.52,4.96,12.62,7.34,18.65h0Z"/>
            <path class="cls-24" d="m65.79,942.64c50.04-28.42,77.64-89.44,106.39-137.43,12.12,30.85,19.25,49.33-1.75,77.64-22.18,29.9-64.22,54.16-99.85,63.42-5.35-1.26-4.56-3.42-4.79-3.62h-.01Z"/>
          </g>
          <path class="cls-34" d="m315.43,650.89c-2.88.34-.13,12.31-4.66,13.66-1.45.43-20.63-12.33-28.09-10.32-61.67-28.63-119.5-18.02-121.66-24.89,2.38-3.26,6.49-14.15,10.07-15.35,63.35,1.53,89.82,7.13,144.34,36.91h0Z"/>
          <g>
            <path class="cls-24" d="m326.91,645.05c15.98-24.85,31.97-49.69,47.95-74.55,48.99,35.51,84.44,86.66,92.89,147.36,6.64,47.74-5.03,96.95-54.51,115.12,21.31-47.02.75-117.85-34.13-153.22-13.14-13.31-35.59-25.77-52.19-34.72h0Z"/>
            <g>
              <path class="cls-23" d="m330.38,545.15c-18.07,25.68-35.69,52.63-58.36,74.4-30.35-10.68-62.34-12.56-94.12-14.47,18.13-24.72,37.49-48.85,55.71-73.27,32.58-9.7,66.61.22,96.76,13.35h0Z"/>
              <path class="cls-28" d="m356.16,558.25c-18.04,25.17-36.12,50.58-57.48,73.06-8.76-3.94-17.62-8.58-26.66-11.76,22.67-21.77,40.29-48.72,58.36-74.4,8.99,3.91,17.35,8.13,25.78,13.1Z"/>
              <path class="cls-12" d="m374.86,570.5c-15.98,24.85-31.97,49.69-47.95,74.55-2.66-1.43-24.79-12.2-28.23-13.74,21.36-22.48,39.44-47.9,57.48-73.06,6.56,3.87,12.52,7.8,18.7,12.26Z"/>
            </g>
          </g>
          <path class="cls-27" d="m395.9,571.9c3.51-2.32,4.54-3.33,3.04-7.56,29.01,23.98,47.37,40.87,65.34,75.81,23,44.74,38.93,136.37,9.79,155.39-15.31,9.99.43-8.12,4.46-25.72,15.86-69.23-28.73-155.33-82.64-197.93Z"/>
          <path class="cls-34" d="m352.86,531.25c3.19,6.77,24.03,7.72,10.99,19.63-37.96-20.48-94.58-40.05-137.18-27.44,14.8-15.12,15.75-17.53,37.3-17.55,20.49-.02,69.71,16.06,88.88,25.36h0Z"/>
          <path class="cls-9" d="m398.95,564.35c1.49,4.21.47,5.24-3.04,7.56-7.82-6.18-23.3-16.3-32.04-21.03,13.03-11.9-7.81-12.85-10.99-19.63,17.57,8.52,31.21,20.8,46.09,33.1h-.01Z"/>
          <path class="cls-35" d="m315.43,650.89c3.72,2.03,7.74,3.37,11.56,5.67-3.87,5.42-7.75,10.84-11.62,16.25-9.01-6.08-22.87-14.01-32.69-18.58,7.46-2.02,26.64,10.74,28.09,10.32,4.54-1.35,1.78-13.3,4.66-13.66h0Z"/>
        </g>
        <g>
          <path class="cls-8" d="m196.73,501.4c1.46.4,2.82,4.1,4.92,7.05,6,32.19-25.7,32.96-29.38,25.13-1.3-3.35,1.43-4.11,1.41-4.33,2.79,1.25,3.86,2.05,7.1.84,7.01-2.61,4.68-7.42,1.02-11.75.84-.22,3.84-1.2,4.19-2.03,1.49-8.15,5.37-9.02,9.64-14.68.17-.23.92,0,1.11-.23h-.01Z"/>
          <path class="cls-8" d="m209.3,495.33c-.29-.28.67-.93-5.8-5.72-.23-.17,0-.95-.23-1.11,3-4.08,5.99-8.17,8.99-12.25,8.32,2.87,15.23,25.98,14.52,31.01-1.33,9.33-10.6-5.39-17.47-11.95h0Z"/>
          <path class="cls-37" d="m209.3,495.33c-.79,7.34,9.7,14.91,9.13,21.75-.1,1.23-5.89,7.35-7.26,6.7-.82-.39-2.96-6.08-9.52-15.32-2.1-2.96-3.46-6.65-4.92-7.05,1.94-2.44,4.84-8.7,6.78-11.79,6.47,4.79,5.51,5.43,5.8,5.72h-.01Z"/>
          <path class="cls-18" d="m188.48,495.04c2.75,1.89,6.24,2.73,7.14,6.59-4.26,5.66-8.14,6.53-9.64,14.68-6.53-7.61-11.39-1.48-12.55-4.89,3.84-6.48,6.38-16.37,15.05-16.39h0Z"/>
          <path class="cls-36" d="m190.85,484.17c4.61-.44,8.87,1.91,12.44,4.34.22.16,0,.94.23,1.11-1.93,3.09-4.83,9.35-6.78,11.79-.18.23-.94,0-1.11.23-.89-3.87-4.39-4.7-7.14-6.59-4.33-2.97-8.36-.18,2.35-10.87h.01Z"/>
          <path class="cls-18" d="m212.26,476.26c-3,4.08-5.99,8.17-8.99,12.25-3.56-2.42-7.83-4.78-12.44-4.34,6.23-6.21,11.52-11.33,21.42-7.91h0Z"/>
          <path class="cls-18" d="m180.77,530.09c-3.24,1.21-4.31.42-7.1-.84-.56-5.09-2.36-4.6.38-9.3,3.89-2.06,7.4,6.06,6.72,10.14h0Z"/>
          <path class="cls-30" d="m181.8,518.34c3.66,4.33,5.99,9.12-1.02,11.75.69-4.08-2.83-12.2-6.72-10.14,3.42-5.86,5.13-.93,7.74-1.61Z"/>
          <g>
            <path class="cls-8" d="m215.12,473.36c3.07-2.23,11.97-11.1,13.41-13.17,4.7-6.72-5.79-.96-4.58-5.39.29-1.08,17.47-12.04,14.41,2.77-.44,2.11-15.58,22.74-17.77,22.72-2.13-.01-4.56-5.13-5.48-6.94h0Z"/>
            <path class="cls-18" d="m228.53,460.19c-1.44,2.07-10.34,10.93-13.41,13.17-.62-1.22-1.77-1.57-2.79-2.31.08-1.29,13.67-13.31,16.2-10.86h0Z"/>
          </g>
        </g>
        <path class="cls-18" d="m213.24,533.72c1.36-.31,4.87,3.85,4.9,4.17.44,4.85-8.77-3.29-4.9-4.17Z"/>
      </g>
    </g>
    <g>
      <path class="cls-26" d="m763.31,153.05c-6.39,12.93-4.35,6.16-11.48,5.84-2.8-.13-6.69-.49-9.3-.38-44.45,2.02-57.1,25.49-86.3,53.68-2.6,2.02,12.82,23.24,16.82,28.22.73.92,2.22-.05,2.33.09,1.53,1.9,3.6,6.82,5.38,9.26-12.65-7.23-18.19-23.58-27.82-34.01,7.61-16.07,42.73-42.87,46.16-47.07.32-.4,1.01-5.25-.37-4.54,15.53-9.43,48.52-25.88,64.59-11.11h-.01Z"/>
      <path class="cls-37" d="m685.63,251.07c5.86-3.66,59.23-74.89,70.67-87.34,5.59,7.52,6.19,15.09,3.84,24-1.06,3.98-5.6,9.91-7.42,14.22-.27.65.97,2.69.69,3.31-9.71,21.79-35.87,47.78-49.77,68.58-1.47.34-20.64-19.3-18-22.78h-.01Z"/>
      <path class="cls-29" d="m751.83,158.9c2.07,1.49,2.98,2.83,4.46,4.84-11.43,12.45-64.8,83.68-70.67,87.34-.51.32-1.87-.15-2.54,1.68-2.56-1.05-2.18-2.87-2.35-2.97-1.8-2.45-3.86-7.37-5.38-9.26,22.39-27.33,44.77-54.67,67.16-82,2.61-.11,6.5.25,9.3.38h.02Z"/>
      <path class="cls-36" d="m742.53,158.52c-22.39,27.33-44.77,54.67-67.16,82-.11-.15-1.59.83-2.33-.09-3.99-4.97-19.43-26.2-16.82-28.22,29.21-28.19,41.86-51.66,86.3-53.68h0Z"/>
    </g>
    <g>
      <path class="cls-23" d="m400.71,384.06c-4.44,1.8-57.36,59.8-69.27,66.29-15.11,2.13-36.5,9.99-33.08,4.57,2.58-4.07,62.8-53.57,70.61-65.41,15.1-2.18,38.71-10.09,31.74-5.43h0Z"/>
      <g>
        <path class="cls-10" d="m417.07,379.51c2.82,2.28,4.49,4.8,6.26,7.92-20.18,22.1-38.63,46.18-61.3,65.79-7.75.83-13.89,2.31-18.54-5.96,14.9-13.72,51.16-54.8,62.98-63.25,2.92-2.08,6.88-6.4,10.6-4.5h.01Z"/>
        <path class="cls-21" d="m426.37,379.89c2.45,3.26,9.54,11.59,8.42,15.55-1.21,4.25-59.01,59.97-63.32,61.6-7.74,2.92-27.82,2.05-32.61-7.06-2.23-.21-3.89,2.62-5.62,3.47l-1.8-3.08c11.9-6.49,64.83-64.49,69.27-66.29.27-.1,1.36,1.71,5.76-.04-11.82,8.44-48.08,49.53-62.98,63.25,4.65,8.27,10.77,6.78,18.54,5.96.14-.01,1.37,2.06,2.12,1.87,4.32-1.08,62.05-58.7,62.42-63.13.38-4.31-3.1-4.27-3.24-4.51-1.77-3.14-3.44-5.64-6.26-7.92,3.09-.03,6.22.44,9.3.38v-.02Z"/>
        <path class="cls-6" d="m362.02,453.22c22.68-19.61,41.12-43.68,61.3-65.79.14.24,3.62.21,3.24,4.51-.39,4.43-58.11,62.06-62.42,63.13-.75.19-1.98-1.88-2.12-1.87h0Z"/>
      </g>
      <g>
        <path class="cls-23" d="m462.3,386.27c12.44,3.72,22.42,7.82,33.99,13.7-4.26,3.57-8.51,7.15-12.76,10.72-3.04-6.92-10.1-11.61-17.45-9.06-4.96,1.72-88.48,72.86-25.97,66.52-.14.11.83,1.63-.09,2.33-6.34,4.84-26.15,13.53-34.74,18.75-4.99-2.41-25.99-12.32-27.44-12.75-16.63-4.99-63.55-3.66-52.72-17.88,1.86-1.38,6.18-4.18,8.15-5.15,1.73-.86,3.4-3.69,5.62-3.47,4.79,9.11,24.86,9.98,32.61,7.06,4.32-1.63,62.12-57.34,63.32-61.6,1.13-3.96-5.98-12.29-8.42-15.55.11,0-.79-2.34.09-2.33,7.19.15,27.46,6.21,35.83,8.71h0Z"/>
        <path class="cls-28" d="m507.83,405.64c5.27,3.12,13.84,9.47,18.93,13.37-27.38,31.06-54.76,62.12-82.13,93.18-10.34-5.28-19.85-12.55-30.26-17.93-3.04-1.58-6.08-3.55-9.11-5.03,8.6-5.21,28.4-13.91,34.74-18.75.92-.7-.05-2.22.09-2.33,6.28-4.96,44.68-42.46,45.61-46.96.51-2.47-1.01-7.85-2.18-10.5,4.26-3.57,8.51-7.15,12.76-10.72,3.8,1.93,7.88,3.49,11.56,5.67h0Z"/>
        <path class="cls-24" d="m444.63,512.19c27.38-31.06,54.76-62.12,82.13-93.18,6.06,4.65,12.11,9.2,17.93,14.15-7.68,11.68-71.47,81.14-76.67,83.4-12.08,5.24-14.4.23-23.4-4.37Z"/>
        <g>
          <path class="cls-21" d="m483.51,410.69c1.17,2.65,2.7,8.04,2.18,10.5-.93,4.49-39.33,41.99-45.61,46.96-62.51,6.34,21.02-64.8,25.97-66.52,7.36-2.55,14.41,2.14,17.45,9.06h0Z"/>
          <path class="cls-15" d="m465.64,405.17c7.73-2.71,14.52,2.7,7.41,13.45-1.68,2.54-38.54,43.75-41.53,44.37-6.15,1.3-8.87-6.68-8.73-11.45.18-5.55,39.84-45.34,42.84-46.38h.01Z"/>
        </g>
      </g>
    </g>
  </g>
  <g>
    <path class="cls-38" d="m2007.73,1115.72c-.84-6.49.44-4.19-.15-21.64-.18-5.22-.27-7.87-.66-10.11-.73-4.18-1.74-6.65-4.04-13.15-2.75-7.75-1.5-4.78-4.41-12.96-5.26-14.75-11.36-30.12-11.36-30.12-8.34-21.01-12.51-31.52-16.34-43.56-11.14-35.05-6.11-41.14-14.2-46.64-14.8-10.07-33.51,9.05-56.43-3.03-5.39-2.84-8.04-5.84-18-10.52-12.03-5.64-16.16-5.02-20.63-9.71-5.65-5.92-4.76-12.89-6.11-24.27-.27-2.33-3.88-14.39-11.08-38.42-10.93-36.47-14.05-45.52-21.84-47.73-6.37-1.81-10.46,2.49-14.56-.81-6.81-5.47.88-20.2-6.47-25.89-2.33-1.8-5.51-2.01-11.87-2.43-6.28-.41-6.93.91-12.67,0-2.68-.42-4.79-1.07-5.66,0-1.17,1.44,1.45,4.05.27,6.2-1.1,2.01-5.05,2.81-7.01,1.35-2.12-1.58-.23-4.57-2.16-7.01-1.99-2.52-6.28-2.24-14.29-1.62-7.41.58-7.9,1.5-11.87,1.08-3.11-.33-5.9-1.46-11.35-3.72-9.46-3.93-10.57-5.66-14-5.17-4.47.63-4.65,3.87-9.17,4.85-4.36.96-7.13-1.42-15.1-5.39-3.02-1.5-8.84-3.79-20.49-8.36-10.31-4.05-15.47-6.07-16.72-6.47-7.79-2.51-11.26-2.92-13.75-6.47-1.48-2.11-.89-2.87-3.78-9.17-1.78-3.9-3.57-7.79-4.85-7.55-.87.16-1.18,2.29-1.78,6.52-.92,6.55-.24,7.11-1.19,8.85-1.92,3.52-5.47,2.6-8.9,5.93-2.86,2.78-3.29,6.23-4.04,10.52-3.23,18.35-6.54,18.67-7.01,31.82-.29,8.06.82,11.95,1.89,14.56,1.56,3.81,2.64,3.89,3.78,7.28,2.35,7.02-.98,10.53.27,15.91.7,3.01,2.55,5.36,13.84,12.92,20,13.39,21.05,12.06,23.64,16.2,4.53,7.23,5.92,18.85,2.7,28.04-1.39,3.97-2.84,5.2-2.43,8.09.78,5.45,7.01,8.13,18.07,14.29,14.01,7.81,21.01,11.76,20.76,13.75-.77,6.19-35.34.77-42.88,16.18-1.34,2.74-.36,3.13-.27,15.1.11,15.87-1.54,26.91-3.24,38.29-2.46,16.46-4.42,19.62-5.39,21.03-6.25,9.1-15.91,10.8-22.11,13.48-25.21,10.92-43.72,60.12-27.24,94.11,1.2,2.48,2.66,4.99,4.3,7.46,9.15-.37,18.35-.33,27.48-.53,12.46-.28,24.92-.24,37.38-.08,19.19.26,38.38.81,57.58,1.09.57-.23,1.22-.37,1.96-.37h14.56c.55,0,1.05.08,1.51.21.79-.78,1.9-1.29,3.34-1.29,18.86,0,37.71.1,56.57.74,33.1,1.13,66.06,1.38,99.17.59,32.58-.78,65.17-.68,97.74.29.78.02,1.46.19,2.05.47.21-.03.42-.05.63-.08,3.19-.36,6.33-1.12,9.51-1.62,5.28-.83,7.07-.98,8.29-2.43,1.6-1.89.8-4.3.2-8.9Z"/>
    <path class="cls-43" d="m1693.04,776.96c-.9.99-2.34,2.24-4.25,2.43-2.37.23-3.7-1.36-7.28-3.24-2.78-1.45-2.96-1.01-8.29-3.03-2.25-.85-5.44-2.16-9.25-4.04,0,0,0,0,0,0-.3-.14-13.84-6.57-25.8-11.59-9.86-4.14-17.97-7.11-23.06-8.9.81-.58,2.09-1.45,3.74-2.38,2.85-1.61,3.31-1.42,4.18-2.24,1.62-1.52,1.34-3.38,2.03-8.33.69-4.95,1.04-7.43,1.92-7.68,1.12-.32,3.69,2.48,10.3,17.86,10.22,3.78,20.67,7.81,31.31,12.11,10.58,4.27,20.83,8.61,30.75,12.96-1.17.92-2.41,1.99-3.67,3.24-.98.97-1.85,1.92-2.63,2.83Z"/>
    <path class="cls-43" d="m1629.08,845.06c-6.15-4.86-12.3-9.71-18.45-14.57-2.19-11.5-4.38-23-6.57-34.5,9.88,6.04,19.77,12.07,29.65,18.11-1.54,10.32-3.09,20.64-4.63,30.96Z"/>
    <path class="cls-43" d="m1633.71,814.11c-9.88-6.04-19.77-12.07-29.65-18.11.69-6.96,1.86-14.78,3.79-23.22,2.08-9.13,4.64-17.22,7.25-24.2,25.89,10.88,51.78,21.75,77.66,32.63-10.73,17.11-17.96,20.18-22.67,19.56-.07,0,0,0-11.54-4.39-7.67-2.92-11.5-4.38-11.53-4.38-.9-.3-1.99-.61-2.87-1.09-.39-.21-.81-.34-1.2-.54-.39-.2-.71-.38-.88-.25-.08.06-.08.14-.14.39,0,.03,0,0-.25.7-.13.38-.64,1.8-1,2.83-1.78,5.05-2.71,7.69-3.74,10.64-.83,2.38-1.93,5.58-3.24,9.44Z"/>
    <path class="cls-43" d="m1844.72,977.79c-3.77-.61-9.23-2.07-14.16-6.07-5.56-4.51-6.11-8.75-10.83-15.33-3.98-5.55-8.88-9.1-18.7-16.22-12.26-8.89-22.44-14.38-23.8-15.11-30.53-16.34-45.79-24.51-61.96-31.81-20.42-9.22-49.55-24.04-86.2-48.19,1.54-10.32,3.09-20.64,4.63-30.96,6.25,3.44,15.1,8.17,25.89,13.48,27.67,13.62,41.63,20.42,49.08,17.26,14.78-6.28,10.01-30.66,27.64-37.69,1.8-.72,1.52-.33,21.03-.67,21.25-.38,31.88-.56,35.19-1.01,8.09-1.09,16.32-.6,24.47-1.01,1.6-.08,5.05-.26,8.09,1.82,3.6,2.46,4.6,6.72,5.06,8.49,2.08,8.13,1.86-.17,11.12,25.89,4.13,11.63,8.47,23.82,12.34,41.06,2.1,9.37,1.08,6.93,4.39,23.8,4.54,23.14,6.81,34.7,9.77,43.75,5.51,16.84,9.81,21.98,6.88,26.49-4.14,6.37-18.24,4.64-29.93,2.02Z"/>
    <path class="cls-44" d="m1683.85,839.22c-16.71-8.37-33.43-16.74-50.14-25.11,2.31-6.74,4.65-13.5,7.05-20.28.44-1.24.88-2.48,1.31-3.72,27.12,10.31,54.25,20.63,81.37,30.94-1.64,7.54-4.51,12.84-6.53,15.96-3.85,5.96-6.8,7.4-8.57,7.96-1.72.55-3.29.6-4.26.63-2.94.09-5.31-.52-9.88-2.18-2.84-1.03-6.36-2.41-10.35-4.2Z"/>
    <path class="cls-45" d="m1723.44,821.05c-17.66-6.74-35.33-13.48-52.99-20.22,1.21.03,3.08-.09,5.12-.91,1.73-.7,2.84-1.59,4.48-2.95,2.09-1.73,3.45-3.26,4.76-4.76,1.3-1.49,2.87-3.28,4.56-5.88,2.32-3.58,2.57-5.15,3.39-5.11,1.52.08.84,5.49,4.31,10.11.93,1.24,2.2,2.47,9.71,6.2,3.09,1.53,7.31,3.53,12.49,5.67,2.49.81,4.98,1.61,7.47,2.42,1.07.34,2.7.78,4.72,1.08,2.54.38,4.1.29,4.19.75.1.49-1.6.9-3.65,2.22-2.63,1.68-4.11,3.74-5.38,5.49-.98,1.35-2.2,3.32-3.19,5.9Z"/>
    <path class="cls-44" d="m1836.83,927.23c-4.05,1.12-11.23,2.49-19.82.81-4.81-.94-8.69-2.57-11.53-4.04-6.94-31.96-13.89-63.91-20.83-95.87.51-.7,3.25-4.29,8.29-5.06,5.61-.86,9.59,2.45,10.17,2.95,2.14,2.65,5.32,7.08,7.75,13.18,2.3,5.76,2.63,9.69,4.52,18.86,0,0,.73,3.52,4.25,17.6,4.97,19.87,14.45,44.55,17.19,51.57Z"/>
    <path class="cls-44" d="m1826.92,943.41c.79.57,3.83,2.58,8.09,2.22,3.98-.34,6.53-2.54,7.28-3.24-8.43-24.13-16.85-48.27-25.28-72.4-.89.14-2.22.32-3.84.4-2.76.15-3.37-.13-4.25.4-1.33.81-1.22,2.25-2.22,4.85-.5,1.31-1.39,3.17-3.03,5.26-.26,3.94.65,5.45,1.62,6.07,1.63,1.03,3.58-.38,5.66.81,1.48.85,2.06,2.47,2.43,3.64,1.27,4.09,6.58,24.28,13.55,51.98Z"/>
    <path class="cls-46" d="m1820.62,918.65c-1.44,1.17-3.76,2.78-6.95,3.93-3.35,1.21-6.29,1.42-8.19,1.42-1.97-9.08-3.95-18.16-5.92-27.25.85-.34,2.92-1.31,4.51-3.56,1.75-2.49,1.85-5.02,1.85-5.92.29.05.75.1,1.33.11.99.01,1.38-.15,2.1-.08,0,0,.75.07,1.6.49,1.63.79,2.31,3.14,2.86,5.12,1.07,3.82,1.6,5.73,1.72,6.29.74,3.36,1.75,6.65,2.62,9.98.58,2.23,1.43,5.48,2.47,9.47Z"/>
    <path class="cls-43" d="m1811.05,804.64c-25.13.93-50.26,1.87-75.39,2.8-.86-8.25-1.72-16.5-2.58-24.75.67-1.45,1.93-3.68,4.25-5.6,3.21-2.65,6.53-3.12,11.12-3.71,1.71-.22,12.45-1.48,14.11,2.13.51,1.12.73,2.44.73,2.44.27,1.64,0,2.57.7,3.61.38.56.85.87,1.05.99,1.59,1,4.06.78,5.53-.67.18-.17,1.12-1.13,1.24-2.5.06-.61-.09-.86-.36-2.7-.18-1.19-.27-1.79-.2-1.96.55-1.35,4.49-.72,9.1-.48,6.42.33,6.26-.51,10.72,0,2.29.26,5.69.87,9.74,2.46.52.38,1.45,1.12,2.31,2.26,5.57,7.31-1.07,17.94,4.15,23.46.62.65,1.75,1.6,3.79,2.2Z"/>
    <path class="cls-43" d="m1802.52,993.43c-7.95,2.24-20.28,4.74-35.33,3.78-12.85-.83-24.07-1.55-33.98-8.9-9.95-7.38-9.92-15.01-21.84-35.06-7-11.76-13.79-20.55-18.13-25.82.05-1.01.11-1.86.17-2.53.05-.66.14-1.64.44-1.68.07,0,.1.03.41.18.2.1.3.13.5.22.48.2,1.63.73,2.07.93.38.17,1.25.54,2.98,1.28,0,0,.92.39,1.66.7.07.03.36.15.46.19.08.03.14.06.16.07.07.03.07.03.07.03.02.01.03.02.04.02.01,0,0-.03,0-.05,0-.03.01-.06.02-.09.01-.07.03-.15.04-.22.04-.26.09-.51.13-.77.02-.1.24-1.43.28-1.65,0-.04.76-4.51.82-4.82,0-.03,4.9-28.9,4.94-29.12,8.99,4.32,22.21,10.75,38.2,18.83,22.39,11.31,28.48,14.88,30.61,16.14,9.95,5.89,24.02,15.09,39.84,28.73-4.85,13.21-9.71,26.43-14.56,39.64Z"/>
    <g>
      <rect class="cls-16" x="1615.6" y="754.16" width="4.74" height="34.2" transform="translate(445.66 -584.6) rotate(23.67)"/>
      <rect class="cls-16" x="1622.25" y="757.07" width="4.74" height="34.2" transform="translate(447.39 -587.03) rotate(23.67)"/>
      <rect class="cls-16" x="1629.14" y="760.09" width="4.74" height="34.2" transform="translate(449.18 -589.54) rotate(23.67)"/>
    </g>
    <path class="cls-45" d="m1735.66,807.44c-5.08-.84-9.27-1.97-12.43-2.97-2.55-.81-4.59-1.58-5.71-2.02-2.35-.92-4.57-1.97-8.91-4.04-.86-.41-3.67-1.75-7.11-3.67-.56-.32-3.63-2.06-5.06-4.35-.38-.61-.72-1.29-.72-1.29-.66-1.33-.98-2.46-1.15-3.06-.17-.62-.43-1.65-.57-2.31-.06-.29-.1-.45-.18-.77-.07-.26-.13-.52-.24-.83,0,0-.17-.49-.42-.75-.04-.04-.1-.1-.18-.13-.07-.03-.1-.01-.21-.04-.06-.02-.11-.04-.18-.08-.1-.05-.14-.08-.2-.11-.13-.07-.24-.09-.33-.11-.23-.06-.37-.15-.58-.24-.24-.11-.95-.42-2.8-1.18,3.41-2.87,6.82-5.75,10.23-8.62,2.56.18,4.15-.45,5.15-1.08,1.31-.84,1.8-1.81,3.74-2.85,1.19-.64,2.23-.93,2.67-1.03,2.78-.65,5.06.79,9.1,2.77,0,0,4.08,2,8.89,3.82,5.19,1.97,7.41,2.28,9.18,2.34,2.23.08,4.06-.24,5.27-.51-1.14.34-4.1,1.33-6.36,3.47-.75.71-1.36,1.5-1.82,2.08-1.37,1.76-1.54,2.45-1.58,2.69-.14.69-.02,1.1.16,2.24.2,1.27.24,2.56.4,3.84.26,2.14.46,4.28.7,6.42.28,2.51.69,6.39,1.26,12.38Z"/>
    <path class="cls-44" d="m1717.31,964.04c.8,3.28,4.43,16.49,17.5,25.38,10.94,7.44,22.06,7.48,25.86,7.33,1.01-24.03,2.01-48.06,3.02-72.08-13.66-6.83-27.33-13.66-40.99-20.49-1.8,19.96-3.6,39.91-5.39,59.87Z"/>
    <path class="cls-43" d="m1646.62,856.44c1.51,2.37,3.31,5.83,4.38,10.28,0,0,1.58,6.5.51,13.58-.32,2.15-.87,4-.87,4-.52,1.77-1.13,3.2-1.24,3.45-.71,1.66-1.03,1.96-1.34,3.05-.36,1.26-.38,2.38-.33,3.12.21.93.68,2.41,1.76,3.87,1.16,1.56,2.49,2.38,3.09,2.74,6.57,3.96,9.86,5.94,14.97,8.6,5,2.6,4.96,2.97,11.41,6.57,5.26,2.94,13.01,6.95,23.24,11.13,2.08-12.24,4.15-24.49,6.23-36.73-20.6-11.22-41.21-22.43-61.81-33.65Zm42.91,57.71c-12.22-6.56-24.45-13.12-36.67-19.69,1.32-2.94,2.76-6.95,3.51-11.87,1.07-7.03.29-12.91-.54-16.72,13.84,7.64,27.69,15.28,41.53,22.92.5,2.56,1.24,8.23-1.08,14.76-1.88,5.31-4.93,8.8-6.74,10.58Z"/>
    <path class="cls-42" d="m1675.95,902.8l-6.2-4.31c.83-.02,6.74-.23,10.83-5.26,4.26-5.24,3.02-11.35,2.85-12.11,2.66,1.51,5.32,3.02,7.98,4.53-.46,2.07-1.76,6.69-5.75,10.95-3.65,3.89-7.7,5.54-9.71,6.2Z"/>
    <ellipse class="cls-47" cx="1647.64" cy="806.41" rx="3.76" ry="7.18" transform="translate(247.67 1991.79) rotate(-66.33)"/>
    <g>
      <ellipse class="cls-40" cx="1712.19" cy="860.31" rx="23.12" ry="1.44" transform="translate(192.36 2027.29) rotate(-64.2)"/>
      <ellipse class="cls-40" cx="1719.78" cy="862.11" rx="23.12" ry="1.44" transform="translate(195.02 2035.13) rotate(-64.2)"/>
      <ellipse class="cls-40" cx="1726.85" cy="865.17" rx="23.12" ry="1.44" transform="translate(196.26 2043.23) rotate(-64.2)"/>
      <ellipse class="cls-40" cx="1734.18" cy="867.59" rx="23.12" ry="1.44" transform="translate(198.21 2051.2) rotate(-64.2)"/>
      <ellipse class="cls-40" cx="1741.51" cy="870.02" rx="23.12" ry="1.44" transform="translate(200.17 2059.17) rotate(-64.2)"/>
    </g>
    <ellipse class="cls-47" cx="1663.24" cy="813.25" rx="3.76" ry="7.18" transform="translate(250.75 2010.17) rotate(-66.33)"/>
    <circle class="cls-46" cx="1719.23" cy="926.82" r="5.76"/>
    <line class="cls-39" x1="1735.66" y1="807.44" x2="1786.04" y2="930.51"/>
    <path class="cls-17" d="m1675.24,1050.4c-12.87-13.92-25.74-27.83-38.61-41.75,2.6-10.2,4.94-22.4,6.12-36.25,1.03-12.16.96-23.16.37-32.67.38-1.1,1.07-2.72,2.38-4.35.81-1,2.06-2.28,4.63-3.77,2.4-1.39,4.93-2.4,8.93-3.42,5.18-1.32,9.6-1.85,13.25-2.28,2.75-.32,4.92-.48,8.49-1.16,2.12-.4,3.85-.82,5.01-1.11,1.78.65,4.35,1.82,6.89,3.99,2.7,2.31,4.1,4.68,4.99,6.13,6.6,10.88,10.43,13.87,16.23,24.61,1.34,2.47,2.12,4.13,2.75,5.6,1.75,4.06,1.44,4.54,2.9,7.89,0,0,2.27,5.22,5.43,9.13,1.69,2.1,2.9,3.34,2.9,3.34.89.91,1.01.94,1.08,1.15.79,2.27-11.07,8.13-16.72,11.33-1.38.78-16.93,9.73-26.29,22.65-3.77,5.2-9.45,15.07-10.72,30.94Z"/>
    <path class="cls-36" d="m1694.25,960.2c.12,4.57-1.49,7.01-2.34,8.06-3.54,4.33-10.1,4.24-16.67,4.15-4.45-.06-8.09-.72-10.52-1.28-3.03-3.16-6.72-7.71-9.85-13.79-5.09-9.9-6.23-19.1-6.46-24.63,4.56-2.61,8.5-3.94,11.25-4.66,3.69-.97,7.7-1.5,10.47-1.86,1.56-.21,2.86-.35,3.76-.44,4.56,4.02,11.02,10.82,15.77,20.91,2.34,4.98,3.73,9.64,4.58,13.55Z"/>
    <path class="cls-34" d="m2007.53,1105.81c-.21-12.83-.31-19.24-1.36-25.26-1.18-6.78-2.77-10.5-8.95-25.51-4-9.7-7.72-19.52-11.93-29.12-5.94-13.52-14.15-37.5-24.49-83.32-.94-1.62-3.06-4.7-6.94-6.58-.85-.41-3.47-1.58-9.03-1.51-4.8.06-7.38.99-12.1,2.01-6.6,1.44-12.05,2.63-18.53,2.02-1.94-.18-7.38-.74-13.42-3.69-4.99-2.44-5.68-4.21-13.71-8.44-1.34-.71-3.76-1.98-7.06-3.4-2.87-1.24-5.8-2.34-7.71-3.06-5.27-1.98-5.82-1.98-7.3-2.97-3.38-2.26-4.25-4.7-4.92-4.43-1.03.42.62,6.32,2.76,14.88,3.82,15.27,3.32,15.43,5.46,21.74,2.76,8.11,4.13,12.17,4.85,13.35,0,0,2.54,4.15,3.03,8.49.1.88.16,2.13-.3,3.54,0,0-.55,1.7-1.92,3.13-4.2,4.41-23.66,1.72-23.66,1.72-11.2-1.55-15.37-3.5-18.21-5.55-2.92-2.11-5.05-4.66-5.05-4.66-.94-1.12-1.84-2.38-4.35-6.88-3.64-6.51-4.15-8.14-5.16-8.09-1.18.06-1.79,2.38-3.45,7.76,0,0-1.8,5.84-5.48,16.61-2.14,6.28-2.78,7.57-3.91,10.77-.25.7-.56,1.37-.81,2.07-.45,1.26-.56,1.77-1.06,2.22-.55.5-1.19.59-1.62.66-1.64.26-3.21.91-4.85,1.16-3.25.5-3.29.74-6.42,1.26-6.27,1.05-12.21,1.14-14.76,1.16-2.88.03-6.29-.14-13.11-.47-4.42-.22-6.64-.33-7.64-.44-6.66-.79-12.63-2.63-15.81-4.54-.86-.52-1.83-1.24-4.15-2.63-.79-.47-1.36-.8-2.12-1.42-1.01-.81-1.51-1.21-2.07-1.87-.53-.62-.82-1.11-1.1-1.04-.26.06-.27.52-.45.99-.34.89-1.07,1.3-2.05,1.92-3.34,2.1,2.58-1.08-3.22,2.18-3.44,1.94-9.13,5.09-9.41,5.25,0,0-2.89,1.6-6.23,3.72-6.51,4.13-11.07,8.32-12.21,9.38-2.81,2.62-11.4,10.65-15.78,21.62-.59,1.48-1.75,4.64-2.74,8.64-1.11,4.46-1.66,6.69-1.54,8.35.06.88.23,2.09-.24,2.31-.71.33-2.39-1.9-2.83-2.48-5.27-6.92-12.23-12.41-17.73-19.17-3.92-4.82-9.83-11.61-18.11-19.57-1,2.29-2.81,5.61-6.08,8.58-1.58,1.43-3.35,2.64-10.23,5.96-7.66,3.69-8.6,3.69-11.51,5.27-6.08,3.29-9.71,7.45-12.74,10.92-15.4,17.64-16.65,44.26-16.76,47.41-.23,6.42-.47,15.78,3.54,27.08,1.93,5.44,4.39,10,6.86,13.77,9.17-.38,18.38-.33,27.53-.53,12.46-.28,24.92-.24,37.38-.08,19.19.26,38.38.81,57.58,1.09.57-.23,1.22-.37,1.96-.37h14.56c.55,0,1.05.08,1.51.21.79-.78,1.9-1.29,3.34-1.29,18.86,0,37.71.1,56.57.74,33.1,1.13,66.06,1.38,99.17.59,32.58-.78,65.17-.68,97.74.29.31,0,.6.05.88.1,7.63-1.36,14.23-2.66,19.6-3.75.07-4.54.13-11.02,0-18.81Z"/>
  </g>
  <g>
    <g>
      <rect class="cls-13" x="550.51" y="131.2" width="805" height="805"/>
      <path class="cls-16" d="m1351.51,135.2v797h-797V135.2h797m8-8h-813v813h813V127.2h0Z"/>
    </g>
    <line class="cls-41" x1="548.51" y1="382.2" x2="1355.51" y2="382.2"/>
    <line class="cls-41" x1="552.51" y1="673.2" x2="1359.51" y2="673.2"/>
    <line class="cls-41" x1="817.51" y1="130.2" x2="817.51" y2="937.2"/>
    <line class="cls-41" x1="1087.51" y1="133.2" x2="1087.51" y2="940.2"/>
  </g>
</svg>