<?xml version="1.0" encoding="UTF-8"?>
<svg id="liv" xmlns="http://www.w3.org/2000/svg" xmlns:xlink="http://www.w3.org/1999/xlink" viewBox="0 0 167.24 162.56">
  <defs>
    <style>
      .cls-1 {
        fill: #c9173b;
      }

      .cls-1, .cls-2, .cls-3, .cls-4, .cls-5, .cls-6, .cls-7, .cls-8, .cls-9, .cls-10, .cls-11, .cls-12, .cls-13 {
        stroke-width: 0px;
      }

      .cls-2 {
        fill: #de2c4f;
      }

      .cls-3 {
        fill: #1f1411;
      }

      .cls-4 {
        fill: url(#linear-gradient);
      }

      .cls-5 {
        fill: #ae0d2f;
      }

      .cls-6 {
        fill: #950f1d;
      }

      .cls-7 {
        fill: #d92333;
      }

      .cls-8 {
        fill: #6c081b;
      }

      .cls-9 {
        fill: #1f1124;
      }

      .cls-10 {
        fill: url(#linear-gradient-2);
      }

      .cls-11 {
        fill: url(#linear-gradient-3);
      }

      .cls-12 {
        fill: #e95b70;
      }

      .cls-13 {
        fill: #151411;
      }
    </style>
    <linearGradient id="linear-gradient" x1="126.47" y1="76.5" x2="115.23" y2="90.27" gradientUnits="userSpaceOnUse">
      <stop offset="0" stop-color="#eb7684"/>
      <stop offset="1" stop-color="#d72140"/>
    </linearGradient>
    <linearGradient id="linear-gradient-2" x1="160.9" y1="76.02" x2="156.89" y2="90.23" gradientUnits="userSpaceOnUse">
      <stop offset="0" stop-color="#ef818e"/>
      <stop offset="1" stop-color="#e3445e"/>
    </linearGradient>
    <linearGradient id="linear-gradient-3" x1="165.27" y1="108.05" x2="102.22" y2="114.07" gradientUnits="userSpaceOnUse">
      <stop offset="0" stop-color="#c11742"/>
      <stop offset="1" stop-color="#950a29"/>
    </linearGradient>
  </defs>
  <path class="cls-13" d="m116.21,70.8c-.19.36-.77-.13-.63.63-10.16.02-13.59,7.13-14.37,7.46-.04.02-.15-.43-.71-.16,3.68-5.34,9.28-8.05,15.72-7.94Z"/>
  <g>
    <path class="cls-9" d="m165.1,80.01q-.56-.08-1.11-.16c-.56-.93-1.4-2.13-2.64-3.33-1.26-1.22-2.5-2.03-3.46-2.56-1-.6-2.51-1.36-4.45-1.91-6.38-1.78-11.72.51-12.7.95-4.98,2.23-7.53,6-8.42,7.47-.25-.84-.65-1.39-1.19-2.06-.09-.11-.45-.42-.63-.63-1.24-1.39-1.76-1.85-3.33-2.86.13-.71-3.78-2.27-4.68-2.54-2.21-.66-4.62-.96-6.91-.95-.13-.77.45-.28.64-.63.21,0,.42,0,.63,0-.16.52,1.51.29,2.62.48,1.66.28,3.42,1.1,5,1.11.48.16,1.71,1.05,1.9.71,3.3,3.59,5.41,4.06,6.76,3.72,1.7-.43,2.13-2.11,5.08-3.81,1.57-.9,2.89-1.26,4.13-1.59,1.68-.45,6.09-1.57,11.43,0,1.71.5,5.32,1.81,8.57,5.08,1.28,1.29,2.17,2.55,2.77,3.5Z"/>
    <path class="cls-3" d="m157.96,73.98c-1.96-1.09-3.34-1.55-5.56-1.9-.02,0,.12-.1-.32-.16-2.12-.28-4.23-.22-6.35,0-2.97.31-4.74.91-7.3,2.38-2.74,1.57-4.96,3.65-5.87,6.83-.41-.02-.95-1.67-1.43-2.7.54.67.94,1.22,1.19,2.06,2.73-6.52,10.48-9.52,17.14-9.21,1.76.08,7.46,1.14,8.49,2.7Z"/>
    <path class="cls-13" d="m124.46,72.39c-1.58,0-3.34-.84-5-1.11-1.11-.19-2.78.05-2.62-.48,2.56.12,5.2.78,7.62,1.59Z"/>
  </g>
  <g>
    <path class="cls-4" d="m127.16,74.93c1.58,1.01,2.09,1.47,3.33,2.86.25,1.46,1.33,3.14,1.59,4.84.14.9.29,7.81.16,8.25-.04.13-.34,0-.32.24-6.46-.03-12.91.02-19.37,0v-19.05c4.98-.77,10.29.1,14.6,2.86Z"/>
    <path class="cls-10" d="m157.96,73.98c2.48,1.38,4.56,3.45,6.03,5.87,2.53,4.16,2.48,6.68,2.22,11.43-4.55.17-9.11-.16-13.65-.16q-.08-9.52-.16-19.05c2.22.36,3.6.82,5.56,1.9Z"/>
    <path class="cls-3" d="m115.57,71.44c2.28,0,4.7.29,6.91.95.91.27,4.81,1.83,4.68,2.54-4.31-2.76-9.63-3.62-14.6-2.86-.1.02-.22-.02-.32,0-1.51.27-3.06.75-4.44,1.43-6.39,3.12-10.22,10.52-9.37,17.54.13.18,3.85.07,4.44.08l-.16.63c-4.47.1-5.04-1.27-3.49,4.68,3.72,14.28,21.97,28.6,33.26,37.38,12.1-9.61,28.84-22.96,33.26-38.18.25-1.28.22-2.6.32-3.89.03-.34.15-.36.16-.48.26-4.75.31-7.27-2.22-11.43l1.11.16c2.84,5.01,2.53,12.26.95,17.7-3.82,13.14-22.85,29.14-33.65,37.38-13.97-11.1-36.59-27.61-35.08-47.7.23-3.06,1.44-6.13,3.17-8.65.56-.27.67.18.71.16.78-.33,4.2-7.44,14.37-7.46Z"/>
    <path class="cls-6" d="m131.13,78.42c.47,1.03,1.01,2.68,1.43,2.7l.16,10.16c-.64,0-.74-.16-.79-.16-.02-.23.28-.11.32-.24.13-.45-.02-7.36-.16-8.25-.26-1.7-1.34-3.38-1.59-4.84.19.21.55.52.63.63Z"/>
    <path class="cls-8" d="m112.56,91.12c6.46.02,12.91-.03,19.37,0,.06,0,.15.16.79.16.5,0,.54-.16.63-.16,6.2.02,12.38,0,18.57,0,.21,0,.42,0,.63,0,4.54,0,9.11.33,13.65.16,0,.11-.13.13-.16.48-21.1.36-42.25-.48-63.34,0l.16-.63c3.23.05,6.46-.01,9.68,0Z"/>
    <path class="cls-7" d="m152.4,72.07q.08,9.52.16,19.05c-.21,0-.42,0-.63,0v-4.92l.16-14.29c.44.06.3.16.32.16Z"/>
    <path class="cls-11" d="m102.71,91.76c21.09-.48,42.24.36,63.34,0-.1,1.29-.07,2.6-.32,3.89-4.42,15.22-21.16,28.57-33.26,38.18-11.28-8.79-29.54-23.1-33.26-37.38-1.55-5.95-.97-4.58,3.49-4.68Z"/>
    <g>
      <path class="cls-5" d="m112.56,72.07v19.05c-3.23-.01-6.46.05-9.68,0-.6,0-4.32.1-4.44-.08-.85-7.03,2.97-14.42,9.37-17.54.19,2.11,4.67,1.73,4.37,3.97l.08-5.4c.1-.02.22.02.32,0Z"/>
      <path class="cls-2" d="m112.24,72.07l-.08,5.4c.31-2.24-4.18-1.86-4.37-3.97,1.38-.67,2.93-1.16,4.44-1.43Z"/>
    </g>
    <g>
      <path class="cls-2" d="m145.73,71.91c1.25.88-1.29.59-1.75,1.03-.27.27.2.74,0,1.11-.24.44-6.25,6.87-6.51,7.78-1.11,3.91,13.12,2.59,14.05,3.57.23.24-.16.9.4.79v4.92c-6.2,0-12.38.02-18.57,0,.07-1.43.55-2.77.95-4.13,1.19-4.03,4.22-9.43,3.02-10.95.62-1.08.95-1.03,1.11-1.75,2.56-1.47,4.33-2.07,7.3-2.38Z"/>
      <path class="cls-12" d="m152.08,71.91l-.16,14.29c-.56.11-.16-.55-.4-.79-.93-.98-15.16.34-14.05-3.57.26-.91,6.26-7.33,6.51-7.78.2-.37-.27-.85,0-1.11.46-.44,3-.15,1.75-1.03,2.12-.22,4.23-.28,6.35,0Z"/>
      <path class="cls-1" d="m138.43,74.29c-.16.72-.49.67-1.11,1.75-1.19,2.07-3.83,9.35-3.81,9.92.01.41.55.43.79,1.03-.4,1.36-.88,2.69-.95,4.13-.09,0-.14.16-.63.16l-.16-10.16c.91-3.17,3.13-5.26,5.87-6.83Z"/>
      <path class="cls-7" d="m134.3,86.99c-.25-.6-.78-.62-.79-1.03-.02-.57,2.62-7.85,3.81-9.92,1.2,1.52-1.83,6.92-3.02,10.95Z"/>
    </g>
  </g>
</svg>