<?xml version="1.0" encoding="UTF-8"?>
<svg id="liv" xmlns="http://www.w3.org/2000/svg" viewBox="0 0 367 145.57">
  <defs>
    <style>
      .cls-1 {
        fill: #e29208;
        stroke-width: 0px;
      }

      .cls-2 {
        fill: none;
        stroke: #000;
        stroke-miterlimit: 10;
      }

      .cls-3 {
        font-family: Impact, Impact;
        font-size: 60px;
      }
    </style>
  </defs>
  <rect class="cls-1" y="46.65" width="367" height="84" rx="21.57" ry="21.57"/>
  <text class="cls-3" transform="translate(23 110.11)"><tspan x="0" y="0">Liv</tspan></text>
  <g>
    <path class="cls-2" d="m130.37,62.42c-.16.31-.67-.12-.56.56-8.89.02-11.88,6.24-12.56,6.52-.04.01-.13-.37-.62-.14,3.22-4.67,8.11-7.04,13.74-6.94Z"/>
    <g>
      <path class="cls-2" d="m173.13,70.47q-.49-.07-.97-.14c-.49-.81-1.22-1.86-2.31-2.91-1.1-1.06-2.19-1.77-3.03-2.24-.88-.52-2.19-1.19-3.89-1.67-5.58-1.55-10.25.45-11.11.83-4.35,1.95-6.59,5.25-7.37,6.54-.22-.74-.57-1.21-1.04-1.8-.08-.1-.39-.37-.56-.56-1.09-1.22-1.54-1.62-2.92-2.5.12-.62-3.3-1.98-4.1-2.22-1.93-.58-4.04-.84-6.04-.83-.12-.67.39-.24.56-.56.18,0,.37,0,.56,0-.14.46,1.32.25,2.29.42,1.45.24,2.99.96,4.37.97.42.14,1.5.92,1.67.62,2.89,3.14,4.73,3.55,5.91,3.25,1.48-.37,1.86-1.85,4.44-3.33,1.37-.79,2.53-1.1,3.61-1.39,1.47-.39,5.33-1.37,10,0,1.49.44,4.65,1.58,7.5,4.44,1.12,1.13,1.9,2.23,2.42,3.06Z"/>
      <path class="cls-2" d="m166.88,65.19c-1.71-.95-2.92-1.36-4.86-1.67-.02,0,.11-.09-.28-.14-1.85-.24-3.7-.19-5.55,0-2.6.27-4.14.8-6.39,2.08-2.4,1.37-4.34,3.19-5.14,5.97-.36-.02-.83-1.46-1.25-2.36.48.59.82,1.07,1.04,1.8,2.38-5.7,9.17-8.33,14.99-8.05,1.54.07,6.52,1,7.43,2.36Z"/>
      <path class="cls-2" d="m137.59,63.8c-1.38,0-2.92-.73-4.37-.97-.97-.16-2.43.04-2.29-.42,2.24.11,4.55.69,6.66,1.39Z"/>
    </g>
    <g>
      <path class="cls-2" d="m139.95,66.03c1.38.88,1.83,1.28,2.92,2.5.22,1.27,1.16,2.75,1.39,4.23.12.79.25,6.83.14,7.22-.03.12-.3,0-.28.21-5.65-.03-11.29.02-16.94,0v-16.66c4.35-.67,9,.08,12.77,2.5Z"/>
      <path class="cls-2" d="m166.88,65.19c2.17,1.21,3.99,3.01,5.28,5.14,2.21,3.64,2.17,5.84,1.94,10-3.98.15-7.97-.14-11.94-.14q-.07-8.33-.14-16.66c1.94.31,3.15.71,4.86,1.67Z"/>
      <path class="cls-2" d="m129.81,62.97c2,0,4.11.26,6.04.83.79.24,4.21,1.6,4.1,2.22-3.77-2.41-8.42-3.17-12.77-2.5-.09.01-.19-.02-.28,0-1.32.24-2.68.66-3.89,1.25-5.59,2.73-8.93,9.2-8.19,15.34.11.16,3.37.06,3.89.07l-.14.56c-3.91.09-4.41-1.11-3.05,4.1,3.25,12.49,19.22,25.01,29.08,32.69,10.58-8.4,25.22-20.08,29.08-33.39.21-1.12.19-2.27.28-3.4.02-.3.13-.32.14-.42.23-4.15.27-6.35-1.94-10l.97.14c2.49,4.38,2.21,10.73.83,15.48-3.34,11.5-19.99,25.48-29.43,32.69-12.22-9.71-32-24.14-30.68-41.72.2-2.68,1.26-5.36,2.78-7.57.49-.23.59.15.62.14.68-.29,3.68-6.51,12.56-6.52Z"/>
      <path class="cls-2" d="m143.42,69.08c.41.9.89,2.34,1.25,2.36l.14,8.88c-.56,0-.64-.14-.69-.14-.02-.2.24-.09.28-.21.12-.39-.02-6.43-.14-7.22-.23-1.49-1.17-2.96-1.39-4.23.17.19.48.46.56.56Z"/>
      <path class="cls-2" d="m127.18,80.19c5.65.02,11.29-.03,16.94,0,.05,0,.13.14.69.14.44,0,.47-.14.56-.14,5.42.02,10.82,0,16.24,0,.19,0,.37,0,.56,0,3.97,0,7.96.29,11.94.14,0,.1-.12.12-.14.42-18.45.31-36.95-.42-55.39,0l.14-.56c2.82.05,5.65-.01,8.47,0Z"/>
      <path class="cls-2" d="m162.02,63.53q.07,8.33.14,16.66c-.19,0-.37,0-.56,0v-4.3l.14-12.49c.39.05.26.14.28.14Z"/>
      <path class="cls-2" d="m118.57,80.74c18.44-.42,36.94.31,55.39,0-.09,1.13-.06,2.28-.28,3.4-3.86,13.31-18.5,24.98-29.08,33.39-9.87-7.68-25.83-20.2-29.08-32.69-1.36-5.2-.85-4.01,3.05-4.1Z"/>
      <g>
        <path class="cls-2" d="m127.18,63.53v16.66c-2.82-.01-5.65.05-8.47,0-.52,0-3.77.09-3.89-.07-.74-6.14,2.6-12.61,8.19-15.34.17,1.84,4.09,1.51,3.82,3.47l.07-4.72c.09-.02.19.01.28,0Z"/>
        <path class="cls-2" d="m126.9,63.53l-.07,4.72c.27-1.96-3.65-1.63-3.82-3.47,1.21-.59,2.56-1.01,3.89-1.25Z"/>
      </g>
      <g>
        <path class="cls-2" d="m156.19,63.39c1.09.77-1.13.51-1.53.9-.24.23.18.65,0,.97-.21.39-5.47,6.01-5.69,6.8-.97,3.42,11.47,2.27,12.29,3.12.2.21-.14.79.35.69v4.3c-5.42,0-10.82.02-16.24,0,.06-1.25.48-2.42.83-3.61,1.04-3.53,3.69-8.25,2.64-9.58.54-.94.83-.9.97-1.53,2.24-1.29,3.79-1.81,6.39-2.08Z"/>
        <path class="cls-2" d="m161.74,63.39l-.14,12.49c-.49.09-.14-.48-.35-.69-.81-.85-13.26.3-12.29-3.12.23-.79,5.48-6.41,5.69-6.8.18-.33-.24-.74,0-.97.4-.39,2.62-.13,1.53-.9,1.85-.19,3.7-.24,5.55,0Z"/>
        <path class="cls-2" d="m149.8,65.47c-.14.63-.43.58-.97,1.53-1.04,1.81-3.35,8.18-3.33,8.68.01.36.48.38.69.9-.35,1.19-.77,2.36-.83,3.61-.08,0-.12.14-.56.14l-.14-8.88c.8-2.77,2.74-4.6,5.14-5.97Z"/>
        <path class="cls-2" d="m146.19,76.58c-.22-.52-.68-.55-.69-.9-.02-.5,2.29-6.86,3.33-8.68,1.05,1.33-1.6,6.05-2.64,9.58Z"/>
      </g>
    </g>
  </g>
  <g>
    <path class="cls-2" d="m294.01,64.83c-.16.31-.67-.12-.56.56-8.89.02-11.88,6.24-12.56,6.52-.04.01-.13-.37-.62-.14,3.22-4.67,8.11-7.04,13.74-6.94Z"/>
    <g>
      <path class="cls-2" d="m336.77,72.89q-.49-.07-.97-.14c-.49-.81-1.22-1.86-2.31-2.91-1.1-1.06-2.19-1.77-3.03-2.24-.88-.52-2.19-1.19-3.89-1.67-5.58-1.55-10.25.45-11.11.83-4.35,1.95-6.59,5.25-7.37,6.54-.22-.74-.57-1.21-1.04-1.8-.08-.1-.39-.37-.56-.56-1.09-1.22-1.54-1.62-2.92-2.5.12-.62-3.3-1.98-4.1-2.22-1.93-.58-4.04-.84-6.04-.83-.12-.67.39-.24.56-.56.18,0,.37,0,.56,0-.14.46,1.32.25,2.29.42,1.45.24,2.99.96,4.37.97.42.14,1.5.92,1.67.62,2.89,3.14,4.73,3.55,5.91,3.25,1.48-.37,1.86-1.85,4.44-3.33,1.37-.79,2.53-1.1,3.61-1.39,1.47-.39,5.33-1.37,10,0,1.49.44,4.65,1.58,7.5,4.44,1.12,1.13,1.9,2.23,2.42,3.06Z"/>
      <path class="cls-2" d="m330.52,67.61c-1.71-.95-2.92-1.36-4.86-1.67-.02,0,.11-.09-.28-.14-1.85-.24-3.7-.19-5.55,0-2.6.27-4.14.8-6.39,2.08-2.4,1.37-4.34,3.19-5.14,5.97-.36-.02-.83-1.46-1.25-2.36.48.59.82,1.07,1.04,1.8,2.38-5.7,9.17-8.33,14.99-8.05,1.54.07,6.52,1,7.43,2.36Z"/>
      <path class="cls-2" d="m301.23,66.22c-1.38,0-2.92-.73-4.37-.97-.97-.16-2.43.04-2.29-.42,2.24.11,4.55.69,6.66,1.39Z"/>
    </g>
    <g>
      <path class="cls-2" d="m303.59,68.44c1.38.88,1.83,1.28,2.92,2.5.22,1.27,1.16,2.75,1.39,4.23.12.79.25,6.83.14,7.22-.03.12-.3,0-.28.21-5.65-.03-11.29.02-16.94,0v-16.66c4.35-.67,9,.08,12.77,2.5Z"/>
      <path class="cls-2" d="m330.52,67.61c2.17,1.21,3.99,3.01,5.28,5.14,2.21,3.64,2.17,5.84,1.94,10-3.98.15-7.97-.14-11.94-.14q-.07-8.33-.14-16.66c1.94.31,3.15.71,4.86,1.67Z"/>
      <path class="cls-2" d="m293.46,65.39c2,0,4.11.26,6.04.83.79.24,4.21,1.6,4.1,2.22-3.77-2.41-8.42-3.17-12.77-2.5-.09.01-.19-.02-.28,0-1.32.24-2.68.66-3.89,1.25-5.59,2.73-8.93,9.2-8.19,15.34.11.16,3.37.06,3.89.07l-.14.56c-3.91.09-4.41-1.11-3.05,4.1,3.25,12.49,19.22,25.01,29.08,32.69,10.58-8.4,25.22-20.08,29.08-33.39.21-1.12.19-2.27.28-3.4.02-.3.13-.32.14-.42.23-4.15.27-6.35-1.94-10l.97.14c2.49,4.38,2.21,10.73.83,15.48-3.34,11.5-19.99,25.48-29.43,32.69-12.22-9.71-32-24.14-30.68-41.72.2-2.68,1.26-5.36,2.78-7.57.49-.23.59.15.62.14.68-.29,3.68-6.51,12.56-6.52Z"/>
      <path class="cls-2" d="m307.06,71.5c.41.9.89,2.34,1.25,2.36l.14,8.88c-.56,0-.64-.14-.69-.14-.02-.2.24-.09.28-.21.12-.39-.02-6.43-.14-7.22-.23-1.49-1.17-2.96-1.39-4.23.17.19.48.46.56.56Z"/>
      <path class="cls-2" d="m290.82,82.6c5.65.02,11.29-.03,16.94,0,.05,0,.13.14.69.14.44,0,.47-.14.56-.14,5.42.02,10.82,0,16.24,0,.19,0,.37,0,.56,0,3.97,0,7.96.29,11.94.14,0,.1-.12.12-.14.42-18.45.31-36.95-.42-55.39,0l.14-.56c2.82.05,5.65-.01,8.47,0Z"/>
      <path class="cls-2" d="m325.66,65.95q.07,8.33.14,16.66c-.19,0-.37,0-.56,0v-4.3l.14-12.49c.39.05.26.14.28.14Z"/>
      <path class="cls-2" d="m282.21,83.16c18.44-.42,36.94.31,55.39,0-.09,1.13-.06,2.28-.28,3.4-3.86,13.31-18.5,24.98-29.08,33.39-9.87-7.68-25.83-20.2-29.08-32.69-1.36-5.2-.85-4.01,3.05-4.1Z"/>
      <g>
        <path class="cls-2" d="m290.82,65.95v16.66c-2.82-.01-5.65.05-8.47,0-.52,0-3.77.09-3.89-.07-.74-6.14,2.6-12.61,8.19-15.34.17,1.84,4.09,1.51,3.82,3.47l.07-4.72c.09-.02.19.01.28,0Z"/>
        <path class="cls-2" d="m290.54,65.95l-.07,4.72c.27-1.96-3.65-1.63-3.82-3.47,1.21-.59,2.56-1.01,3.89-1.25Z"/>
      </g>
      <g>
        <path class="cls-2" d="m319.83,65.81c1.09.77-1.13.51-1.53.9-.24.23.18.65,0,.97-.21.39-5.47,6.01-5.69,6.8-.97,3.42,11.47,2.27,12.29,3.12.2.21-.14.79.35.69v4.3c-5.42,0-10.82.02-16.24,0,.06-1.25.48-2.42.83-3.61,1.04-3.53,3.69-8.25,2.64-9.58.54-.94.83-.9.97-1.53,2.24-1.29,3.79-1.81,6.39-2.08Z"/>
        <path class="cls-2" d="m325.38,65.81l-.14,12.49c-.49.09-.14-.48-.35-.69-.81-.85-13.26.3-12.29-3.12.23-.79,5.48-6.41,5.69-6.8.18-.33-.24-.74,0-.97.4-.39,2.62-.13,1.53-.9,1.85-.19,3.7-.24,5.55,0Z"/>
        <path class="cls-2" d="m313.45,67.89c-.14.63-.43.58-.97,1.53-1.04,1.81-3.35,8.18-3.33,8.68.01.36.48.38.69.9-.35,1.19-.77,2.36-.83,3.61-.08,0-.12.14-.56.14l-.14-8.88c.8-2.77,2.74-4.6,5.14-5.97Z"/>
        <path class="cls-2" d="m309.84,78.99c-.22-.52-.68-.55-.69-.9-.02-.5,2.29-6.86,3.33-8.68,1.05,1.33-1.6,6.05-2.64,9.58Z"/>
      </g>
    </g>
  </g>
  <g>
    <path class="cls-2" d="m212.01,62.83c-.16.31-.67-.12-.56.56-8.89.02-11.88,6.24-12.56,6.52-.04.01-.13-.37-.62-.14,3.22-4.67,8.11-7.04,13.74-6.94Z"/>
    <g>
      <path class="cls-2" d="m254.77,70.89q-.49-.07-.97-.14c-.49-.81-1.22-1.86-2.31-2.91-1.1-1.06-2.19-1.77-3.03-2.24-.88-.52-2.19-1.19-3.89-1.67-5.58-1.55-10.25.45-11.11.83-4.35,1.95-6.59,5.25-7.37,6.54-.22-.74-.57-1.21-1.04-1.8-.08-.1-.39-.37-.56-.56-1.09-1.22-1.54-1.62-2.92-2.5.12-.62-3.3-1.98-4.1-2.22-1.93-.58-4.04-.84-6.04-.83-.12-.67.39-.24.56-.56.18,0,.37,0,.56,0-.14.46,1.32.25,2.29.42,1.45.24,2.99.96,4.37.97.42.14,1.5.92,1.67.62,2.89,3.14,4.73,3.55,5.91,3.25,1.48-.37,1.86-1.85,4.44-3.33,1.37-.79,2.53-1.1,3.61-1.39,1.47-.39,5.33-1.37,10,0,1.49.44,4.65,1.58,7.5,4.44,1.12,1.13,1.9,2.23,2.42,3.06Z"/>
      <path class="cls-2" d="m248.52,65.61c-1.71-.95-2.92-1.36-4.86-1.67-.02,0,.11-.09-.28-.14-1.85-.24-3.7-.19-5.55,0-2.6.27-4.14.8-6.39,2.08-2.4,1.37-4.34,3.19-5.14,5.97-.36-.02-.83-1.46-1.25-2.36.48.59.82,1.07,1.04,1.8,2.38-5.7,9.17-8.33,14.99-8.05,1.54.07,6.52,1,7.43,2.36Z"/>
      <path class="cls-2" d="m219.23,64.22c-1.38,0-2.92-.73-4.37-.97-.97-.16-2.43.04-2.29-.42,2.24.11,4.55.69,6.66,1.39Z"/>
    </g>
    <g>
      <path class="cls-2" d="m221.59,66.44c1.38.88,1.83,1.28,2.92,2.5.22,1.27,1.16,2.75,1.39,4.23.12.79.25,6.83.14,7.22-.03.12-.3,0-.28.21-5.65-.03-11.29.02-16.94,0v-16.66c4.35-.67,9,.08,12.77,2.5Z"/>
      <path class="cls-2" d="m248.52,65.61c2.17,1.21,3.99,3.01,5.28,5.14,2.21,3.64,2.17,5.84,1.94,10-3.98.15-7.97-.14-11.94-.14q-.07-8.33-.14-16.66c1.94.31,3.15.71,4.86,1.67Z"/>
      <path class="cls-2" d="m211.46,63.39c2,0,4.11.26,6.04.83.79.24,4.21,1.6,4.1,2.22-3.77-2.41-8.42-3.17-12.77-2.5-.09.01-.19-.02-.28,0-1.32.24-2.68.66-3.89,1.25-5.59,2.73-8.93,9.2-8.19,15.34.11.16,3.37.06,3.89.07l-.14.56c-3.91.09-4.41-1.11-3.05,4.1,3.25,12.49,19.22,25.01,29.08,32.69,10.58-8.4,25.22-20.08,29.08-33.39.21-1.12.19-2.27.28-3.4.02-.3.13-.32.14-.42.23-4.15.27-6.35-1.94-10l.97.14c2.49,4.38,2.21,10.73.83,15.48-3.34,11.5-19.99,25.48-29.43,32.69-12.22-9.71-32-24.14-30.68-41.72.2-2.68,1.26-5.36,2.78-7.57.49-.23.59.15.62.14.68-.29,3.68-6.51,12.56-6.52Z"/>
      <path class="cls-2" d="m225.06,69.5c.41.9.89,2.34,1.25,2.36l.14,8.88c-.56,0-.64-.14-.69-.14-.02-.2.24-.09.28-.21.12-.39-.02-6.43-.14-7.22-.23-1.49-1.17-2.96-1.39-4.23.17.19.48.46.56.56Z"/>
      <path class="cls-2" d="m208.82,80.6c5.65.02,11.29-.03,16.94,0,.05,0,.13.14.69.14.44,0,.47-.14.56-.14,5.42.02,10.82,0,16.24,0,.19,0,.37,0,.56,0,3.97,0,7.96.29,11.94.14,0,.1-.12.12-.14.42-18.45.31-36.95-.42-55.39,0l.14-.56c2.82.05,5.65-.01,8.47,0Z"/>
      <path class="cls-2" d="m243.66,63.95q.07,8.33.14,16.66c-.19,0-.37,0-.56,0v-4.3l.14-12.49c.39.05.26.14.28.14Z"/>
      <path class="cls-2" d="m200.21,81.16c18.44-.42,36.94.31,55.39,0-.09,1.13-.06,2.28-.28,3.4-3.86,13.31-18.5,24.98-29.08,33.39-9.87-7.68-25.83-20.2-29.08-32.69-1.36-5.2-.85-4.01,3.05-4.1Z"/>
      <g>
        <path class="cls-2" d="m208.82,63.95v16.66c-2.82-.01-5.65.05-8.47,0-.52,0-3.77.09-3.89-.07-.74-6.14,2.6-12.61,8.19-15.34.17,1.84,4.09,1.51,3.82,3.47l.07-4.72c.09-.02.19.01.28,0Z"/>
        <path class="cls-2" d="m208.54,63.95l-.07,4.72c.27-1.96-3.65-1.63-3.82-3.47,1.21-.59,2.56-1.01,3.89-1.25Z"/>
      </g>
      <g>
        <path class="cls-2" d="m237.83,63.81c1.09.77-1.13.51-1.53.9-.24.23.18.65,0,.97-.21.39-5.47,6.01-5.69,6.8-.97,3.42,11.47,2.27,12.29,3.12.2.21-.14.79.35.69v4.3c-5.42,0-10.82.02-16.24,0,.06-1.25.48-2.42.83-3.61,1.04-3.53,3.69-8.25,2.64-9.58.54-.94.83-.9.97-1.53,2.24-1.29,3.79-1.81,6.39-2.08Z"/>
        <path class="cls-2" d="m243.38,63.81l-.14,12.49c-.49.09-.14-.48-.35-.69-.81-.85-13.26.3-12.29-3.12.23-.79,5.48-6.41,5.69-6.8.18-.33-.24-.74,0-.97.4-.39,2.62-.13,1.53-.9,1.85-.19,3.7-.24,5.55,0Z"/>
        <path class="cls-2" d="m231.45,65.89c-.14.63-.43.58-.97,1.53-1.04,1.81-3.35,8.18-3.33,8.68.01.36.48.38.69.9-.35,1.19-.77,2.36-.83,3.61-.08,0-.12.14-.56.14l-.14-8.88c.8-2.77,2.74-4.6,5.14-5.97Z"/>
        <path class="cls-2" d="m227.84,76.99c-.22-.52-.68-.55-.69-.9-.02-.5,2.29-6.86,3.33-8.68,1.05,1.33-1.6,6.05-2.64,9.58Z"/>
      </g>
    </g>
  </g>
</svg>