<?xml version="1.0" encoding="UTF-8"?>
<svg id="liv" xmlns="http://www.w3.org/2000/svg" viewBox="0 0 367.69 139.58">
  <defs>
    <style>
      .cls-1 {
        fill: #ff03b2;
      }

      .cls-1, .cls-2 {
        stroke: #000;
        stroke-miterlimit: 10;
      }

      .cls-2 {
        stroke-width: 2px;
      }

      .cls-3 {
        font-family: Impact, Impact;
        font-size: 60px;
      }

      .cls-4 {
        fill: #f3d30a;
        stroke-width: 0px;
      }
    </style>
  </defs>
  <rect class="cls-4" x=".69" y="43.5" width="367" height="84" rx="21.57" ry="21.57"/>
  <g>
    <path class="cls-1" d="m2.12,1.97c-4.91,2.51,2.41,27.23,7.73,39.88,5.06,12.03,7.59,18.04,10.62,20.98,1.11,1.07,3.45,3.1,3.88,6.27.36,2.61-.86,3.99-1.36,8.45-.23,2.03-.17,3.47-.07,5.86.46,10.51.75,17.09,2.72,21.59,5.11,11.66,23.95,14.8,34.6,14.57,4.03-.08,23.38-.05,30.31-12.05,2.18-3.78,2.64-7.9,3.1-12.05,1.04-9.36-1.15-17.39-1.63-19.1-1.48-5.2-2.58-5.81-2.76-9.4-.27-5.63,2.18-9.72,3.58-12.46,5.49-10.81,5.23-21.9,4.99-31.98-.16-6.99-1.53-21.58-5.23-22-4.62-.52-11.27,21.27-13.25,31.09-1.6,7.93-2.39,11.89-2.45,14.2-.11,4.43.42,7.66-1.14,8.46-1.52.78-3.16-1.71-7.34-3.56-3.74-1.65-7.1-1.59-13.8-1.47-6.07.11-9.11.16-12.06,1.81-4.26,2.38-4.91,5.62-6.62,5.32-2.66-.47-1.85-8.45-4.6-18.12-3-10.56-8.66-17.54-12.49-22.25C15.66,12.05,5.91.03,2.12,1.97Z"/>
    <g>
      <ellipse class="cls-2" cx="43.33" cy="86.66" rx="5.61" ry="6.57"/>
      <ellipse class="cls-2" cx="72.08" cy="86.21" rx="5.61" ry="6.57"/>
      <polygon class="cls-2" points="36.82 76.14 35.87 70.96 52.35 79.47 51.73 83.7 36.82 76.14"/>
      <polygon class="cls-2" points="79.16 75.52 80.11 70.35 63.63 78.86 64.24 83.08 79.16 75.52"/>
      <polygon class="cls-2" points="55.14 96.23 63.63 95.89 59.91 101.2 55.14 96.23"/>
      <g>
        <line class="cls-2" x1="51.8" y1="100.43" x2="56.77" y2="104.86"/>
        <line class="cls-2" x1="60.13" y1="102.03" x2="56.38" y2="104.89"/>
        <line class="cls-2" x1="68.06" y1="100.42" x2="63.09" y2="104.84"/>
        <line class="cls-2" x1="59.73" y1="102.01" x2="63.47" y2="104.87"/>
      </g>
    </g>
  </g>
  <text class="cls-3" transform="translate(110.52 109.37)"><tspan x="0" y="0">P</tspan></text>
</svg>