<?xml version="1.0" encoding="UTF-8"?>
<svg id="liv" xmlns="http://www.w3.org/2000/svg" viewBox="0 0 280.9 205.69">
  <defs>
    <style>
      .cls-1 {
        fill: #fff7e9;
      }

      .cls-1, .cls-2 {
        stroke: #000;
        stroke-miterlimit: 10;
      }

      .cls-2 {
        stroke-width: 2px;
      }
    </style>
  </defs>
  <path class="cls-1" d="m1.81,177.89c1.46,6.39,4.58,10.73,5.35,11.76,8.84,11.91,28.3,19.47,36.9,13.37,11.04-7.83-5.11-31.56.53-78.07,2.44-20.06,8.04-37.03,8.06-37.03.02,0-2.2,11.14-3.16,19.61-.53,4.72-.4,8.07-.16,13.6,1.08,24.4,1.75,39.69,6.33,50.13,11.87,27.07,55.61,34.36,80.34,33.85,9.35-.2,54.29-.12,70.38-27.99,5.07-8.79,6.13-18.35,7.2-27.99,2.4-21.73-2.67-40.39-3.8-44.36-3.33-11.73-6.18-21.89-6.41-21.83-.3.09,4.3,18.29,9.25,34.84,13.6,45.46,20.74,68.33,37.85,75.08,8.16,3.22,19.74,3.75,25.67-2.14,9.24-9.18,1.62-30.83-5.35-48.13C242.53,72.5,192.88-5.47,180.36.86c-4.94,2.5-5.33,18.75-5.69,32.98-.26,10.29.97,17.8-2.65,19.65-3.53,1.8-7.33-3.98-17.04-8.26-8.69-3.83-16.48-3.69-32.06-3.42-14.1.25-21.15.37-28.01,4.2-9.9,5.53-11.4,13.05-15.38,12.34-6.14-1.09,2.4-25.58-10.68-42.07-2.04-2.57-7.4-9.36-14.11-10.04C22.54,2.97-6.02,143.71,1.81,177.89Z"/>
  <g>
    <ellipse class="cls-2" cx="96.7" cy="128.72" rx="13.04" ry="15.26"/>
    <ellipse class="cls-2" cx="163.46" cy="127.68" rx="13.04" ry="15.26"/>
    <polygon class="cls-2" points="75.5 119.33 64.38 114.25 102.52 94.23 109.74 101.01 75.5 119.33"/>
    <polygon class="cls-2" points="187.79 119.9 199.02 115.08 161.34 94.2 153.97 100.82 187.79 119.9"/>
    <polygon class="cls-2" points="124.13 150.94 143.85 150.15 135.2 162.48 124.13 150.94"/>
    <g>
      <line class="cls-2" x1="152.86" y1="176.77" x2="141.73" y2="166.04"/>
      <line class="cls-2" x1="133.67" y1="172.3" x2="142.63" y2="166.01"/>
      <line class="cls-2" x1="115.13" y1="175.31" x2="127.07" y2="165.49"/>
      <line class="cls-2" x1="134.61" y1="172.37" x2="126.18" y2="165.39"/>
    </g>
  </g>
</svg>