<?xml version="1.0" encoding="UTF-8"?>
<svg id="liv" xmlns="http://www.w3.org/2000/svg" viewBox="0 0 405.31 104.76">
  <defs>
    <style>
      .cls-1 {
        fill: #086fa0;
      }

      .cls-1, .cls-2, .cls-3, .cls-4, .cls-5, .cls-6, .cls-7, .cls-8, .cls-9, .cls-10, .cls-11, .cls-12, .cls-13, .cls-14, .cls-15, .cls-16, .cls-17, .cls-18, .cls-19, .cls-20, .cls-21, .cls-22, .cls-23, .cls-24, .cls-25, .cls-26, .cls-27, .cls-28, .cls-29, .cls-30, .cls-31, .cls-32, .cls-33, .cls-34, .cls-35, .cls-36, .cls-37, .cls-38, .cls-39, .cls-40 {
        stroke-width: 0px;
      }

      .cls-2 {
        fill: #143150;
      }

      .cls-3 {
        fill: #131212;
      }

      .cls-4 {
        fill: #0f4f40;
      }

      .cls-5 {
        fill: #eda42d;
      }

      .cls-6 {
        fill: #5c5458;
      }

      .cls-7 {
        fill: #293370;
      }

      .cls-8 {
        fill: #28dbec;
      }

      .cls-9 {
        fill: #ebdb14;
      }

      .cls-10 {
        fill: #1c2643;
      }

      .cls-11 {
        fill: #99163c;
      }

      .cls-12 {
        fill: #d3201f;
      }

      .cls-13 {
        fill: #626975;
      }

      .cls-14 {
        fill: #423e3b;
      }

      .cls-15 {
        fill: #e7e7e8;
      }

      .cls-16 {
        fill: #e3dff5;
      }

      .cls-17 {
        fill: #4d4f54;
      }

      .cls-18 {
        fill: #daccac;
      }

      .cls-19 {
        fill: #a29896;
      }

      .cls-20 {
        fill: #1b1c43;
      }

      .cls-21 {
        fill: #0c434e;
      }

      .cls-22 {
        fill: #acafb6;
      }

      .cls-23 {
        fill: #475c68;
      }

      .cls-24 {
        fill: #0b2336;
      }

      .cls-25 {
        fill: #cfb1ca;
      }

      .cls-26 {
        fill: #9ca4a0;
      }

      .cls-27 {
        fill: #6b1943;
      }

      .cls-28 {
        fill: #232429;
      }

      .cls-29 {
        fill: #7b0d1e;
      }

      .cls-30 {
        fill: #3694b4;
      }

      .cls-31 {
        fill: #7b7a7b;
      }

      .cls-32 {
        fill: #155693;
      }

      .cls-33 {
        fill: #30bccd;
      }

      .cls-34 {
        fill: #88e1ad;
      }

      .cls-35 {
        fill: #30213c;
      }

      .cls-36 {
        fill: #8f9093;
      }

      .cls-37 {
        fill: #cfd0d2;
      }

      .cls-38 {
        fill: #e6e929;
      }

      .cls-39 {
        fill: #b0172d;
      }

      .cls-40 {
        fill: #1b0d31;
      }
    </style>
  </defs>
  <rect class="cls-18" x="38.31" y="10.23" width="367" height="84" rx="21.57" ry="21.57"/>
  <g>
    <path class="cls-20" d="m68.74,70.01c2.13,2.97,4.91,5.21,7.97,7.16.8-1.1,1.47-2.28,2.24-3.4h.54c-.91,1.04-1.55,2.27-2.33,3.4-4.67,6.78-4.45,7.85.36.54,3.2,2.45,7.73,2.37,11.28,3.76.12.05,1.46.86,2.33,1.16l-.18,6c-.18,0-.36,0-.54,0-2.25-.07-3.78-.4-5.91-.9-2.8-.65-6.65-2.14-9.13-3.58-5.21-3.03-7.5-5.99-10.74-10.74l4.12-3.4Z"/>
    <path class="cls-7" d="m117.97,31.7c.33.86.95,1.56,1.43,2.33l-3.58,2.15c-.31-1.16-7.33-7.77-9.13-8.59.49-.87,1.48-2.12,1.61-2.42,1.11-2.63-.95-.38-2.33,1.88-.33,0-.61-.22-.9-.36-2.4-1.2-6.56-3.23-9.13-3.58.3-.45.36-.94.54-1.43.22-.64.89-2.44.9-2.86.78-.19,3.73.7,4.74,1.07,7.39,2.74,10.76,6.8,15.84,11.81Z"/>
    <path class="cls-7" d="m76.26,27.58c-3.38,2.36-6.48,5.09-8.95,8.41-.15-.14-3.08-1.78-3.58-1.97.71-1.11,1.49-2.21,2.33-3.22,2.61-3.15,4.67-4.75,8.06-6.98.53,1.32,1.39,2.57,2.15,3.76Z"/>
    <path class="cls-7" d="m86.46,19.17c0,.06,0,.12,0,.18.05,1.33.54,1.6.9,2.15.05.07.55.16.9,1.43-3.04.21-8.2,2.79-11.1,4.12-.64-1.1-1.93-2.35-2.51-3.58.89-.57,2.92-1.95,3.31-2.15,1.59-.8,9.01-3.78,8.5-2.15Z"/>
    <path class="cls-12" d="m67.31,66.79c-.04.12-.04,1.08,0,1.25.14.67,1.03,1.41,1.43,1.97l-4.12,3.4c-.5-.73-2.04-2.31-2.86-4.3,0-.17.03-.38,0-.54l3.4-3.4c.46.57,1.58,1.07,2.15,1.61Z"/>
    <path class="cls-40" d="m105.98,77.71c.45.44,2.98,5.61,3.58,5.01-.15.1-.63.6-1.07.9-1.31.88-2.8,1.47-4.12,2.33-4.28,1.73-8.79,2.74-13.43,2.69l.18-6c-.87-.3-2.21-1.12-2.33-1.16h.18c1.85.98,2.62.31,4.21.72.13-.03.41-.57.45-.72,3.68-.43,9.18-1.94,12.35-3.76Z"/>
    <path class="cls-20" d="m118.87,73.23c-2.45,4.32-5.37,6.72-9.31,9.49l-3.04-5.55c2.16-1.34,6.63-5.17,8.06-7.16,1.32,1.06,2.66,2.7,4.3,3.22Z"/>
    <g>
      <path class="cls-12" d="m121.01,68.04c-.33,1.53-1.37,3.6-2.15,5.01-.03.05.03.13,0,.18-1.63-.53-2.98-2.16-4.3-3.22.43-.6.7-1.36,1.25-1.88.03-.17-.25-.56-.36-.81-.02-.17.04-.39,0-.54.59.03,2.46-1.12,2.69-1.43,1.24.69,2.16,1.47,2.86,2.69Z"/>
      <path class="cls-29" d="m121.55,68.93c-.31.64-.62,1.31-.9,1.97-.64.7-1.09,1.51-1.79,2.15.78-1.41,1.82-3.48,2.15-5.01.16.28.44.55.54.9Z"/>
    </g>
    <path class="cls-7" d="m66.24,37.97c-.97,2.17-1.98,4.35-2.69,6.62-1.1,3.52-1.49,4.79-1.43,8.59,0,.18,0,.36,0,.54.05,1.32.29,3.16.54,4.48.24,1.27.64,2.37,1.07,3.58.33.91.85,2.67,1.43,3.4l-3.4,3.4c-.17-.94-4.98-10.36-4.3-18.35,1.65-6.05,2.22-9.05,5.37-14.59l3.4,2.33Z"/>
    <path class="cls-11" d="m77.51,77.71c-4.81,7.31-5.03,6.24-.36-.54.06.12.33.52.36.54Z"/>
    <path class="cls-7" d="m120.12,35.46c3.15,5.44,3.83,7.91,5.55,13.96.26,6.73-1.18,13.46-4.12,19.51-.09-.34-.37-.61-.54-.9-.71-1.22-1.62-1.99-2.86-2.69.23-.32,2.37-6.7,2.51-7.43.24-1.26.14-2.29.18-3.49,0-.15,0-.22,0-.36,0-.36.01-.72,0-1.07-.14-4.8-1.03-9-3.4-13.25-.13-.24-.17-.17-.18-.18-.31-.53-.34-.34-.36-.36-.11-.17-.52-.16-.54-.18-.16-.2-.13-.85-.18-1.07.04-.03.64.07.98-.18.3-.21,1.63-1.6,2.95-2.33Z"/>
    <g>
      <path class="cls-9" d="m97.2,18.45c.14.49.18.34.18.36,0,.42-.67,2.23-.9,2.86-2.02-.4-1.14-4.37.72-3.22Z"/>
      <g>
        <path class="cls-12" d="m97.2,18.45c-1.86-1.14-2.74,2.82-.72,3.22-.17.49-.24.98-.54,1.43-2.51-.34-5.18.36-7.7-.18-.35-1.28-.85-1.36-.9-1.43,1.24-1.78,4.54-3.49,1.34-3.4l-.09.45c1.3.08-1.19,2.33-1.61,1.7.07-.98,1.58-.77-.36-1.79.06-.23-.11-.75.09-.9,3.47-.06,6.92.16,10.38.36.47.32.05.38.09.54Z"/>
        <path class="cls-5" d="m87,20.24c-.35-.53.03-.98-.54-.9,0-.06,0-.12,0-.18,0-.04.14-.59.18-.72,1.94,1.02.43.81.36,1.79Z"/>
        <path class="cls-9" d="m87.36,21.5c-.36-.54-.85-.82-.9-2.15.57-.08.18.36.54.9.42.63,2.91-1.62,1.61-1.7l.09-.45c3.2-.08-.1,1.63-1.34,3.4Z"/>
        <path class="cls-9" d="m92.28,18.09c.67-.14.35.49.54.54,2.78-1.82-.93,2.1-.63,2.6.26.42,1.35-.63,1.7-.45,1.3.66-1.87,1.97-2.33.36-5.77,3.16-1.01.24-.18-.54,1.71-1.61.6-2.11.63-2.24.11-.08.21-.26.27-.27Z"/>
      </g>
    </g>
    <path class="cls-39" d="m109.56,82.72c-.6.6-3.13-4.57-3.58-5.01.03-.02.07-.25.54-.54l3.04,5.55Z"/>
    <g>
      <path class="cls-11" d="m77.16,27.05c.52.9.88,2.09,1.43,3.04.03.04-.03.13,0,.18l-.36.36s-.04.02-.18-.18c-.62-.89-1.2-1.93-1.79-2.86-.76-1.19-1.62-2.44-2.15-3.76.18-.12.35-.24.54-.36.57,1.23,1.87,2.48,2.51,3.58Z"/>
      <path class="cls-12" d="m119.4,34.03c.3.48.46.98.72,1.43-1.33.73-2.66,2.11-2.95,2.33-.34.24-.94.15-.98.18-.05-.24-.13-.78-.36-.9.03-.21.04-.75,0-.9l3.58-2.15Z"/>
      <path class="cls-13" d="m88.25,22.93c2.52.54,5.19-.16,7.7.18,2.57.35,6.73,2.38,9.13,3.58-1.7.35-1.66,1.38.18,1.61-.1.17-.22.32-.18.54-2.54.02-2.67-1.07-4.56-1.79-7.99-3.04-15.02-1.87-21.93,3.04-.55-.95-.92-2.15-1.43-3.04,2.9-1.33,8.06-3.91,11.1-4.12Z"/>
      <path class="cls-37" d="m115.82,36.18c.04.15.03.69,0,.9-.25,2.09-2.43,2.33-3.76,3.22-2.27-.73-2.08-3.28-2.15-3.49-.05-.16-.35-.07-.36-.09-.02-.06.28-1.55-.36-.18-.86-.43.96-.43-.98-2.33-1.32,1.23-.09-.19-.09-.27-.01-.32-1.77-2.49-2.33-2.42-.39.05-.08,1.18-.18,1.43-.2.02-.88-.66-.9-.72-.23-.87.64-2.32,1.07-3.22.5-1.03.85-1.36.9-1.43,1.8.82,8.82,7.43,9.13,8.59Z"/>
      <path class="cls-11" d="m106.69,27.58c-.04.07-.4.4-.9,1.43-.12-.01-.27.03-.36,0-.18-.05-.22-.18-.36-.18-.04-.22.08-.37.18-.54.26-.42.47-.85.72-1.25,1.38-2.26,3.44-4.51,2.33-1.88-.13.3-1.13,1.55-1.61,2.42Z"/>
      <path class="cls-15" d="m105.08,26.69c.28.14.56.35.9.36-.25.4-.46.83-.72,1.25-1.84-.23-1.88-1.26-.18-1.61Z"/>
      <path class="cls-13" d="m78.05,30.45c-.57.26-1.22.31-1.79.54-2.64,1.04-6.51,3.94-8.23,6.27-.13-.12-.23-.24-.36-.36-.45-.42-.32-.86-.36-.9,2.48-3.33,5.57-6.05,8.95-8.41.59.93,1.17,1.97,1.79,2.86Z"/>
      <path class="cls-12" d="m93.62,81.47c-.03.15-.32.69-.45.72-1.59-.41-2.36.27-4.21-.72.37-3.05.43-1.99,4.39-2.15.37.16.34,1.82.27,2.15Z"/>
      <path class="cls-22" d="m67.67,51.93c-.17.41-.68.94,0,.9-.68.4-2.24,8.26-3.94,8.95-.43-1.21-.84-2.31-1.07-3.58,1.19-1.25,2.28-2.59,3.22-4.03,0-.01-.24-.17-.18-.27.22-.35,1.45-2.3,1.7-2.33.11-.01.25.35.27.36Z"/>
      <path class="cls-13" d="m68.56,39.22c-.43.28-3.71,4.67-4.83,5.37h-.18c.71-2.27,1.71-4.45,2.69-6.62.3.04.88-.17,1.07-.36l1.25,1.61Z"/>
      <path class="cls-13" d="m65.34,53.9s.21.01.36,0c-.06.1.19.25.18.27-.95,1.44-2.03,2.78-3.22,4.03-.25-1.32-.48-3.15-.54-4.48h.18c.55.72,2.27.73,3.04.18Z"/>
      <g>
        <path class="cls-12" d="m67.31,36s-.09.47.36.9c-.4.44-.33.69-.36.72-.2.18-.77.4-1.07.36l-3.4-2.33c.3-.53.43-.87.9-1.61.5.19,3.43,1.83,3.58,1.97Z"/>
        <path class="cls-27" d="m68.03,37.25c.09.09.63.97,1.43,1.79l-.18.18c-.07-.05-.28-.18-.36-.18-.12.03-.26.11-.36.18l-1.25-1.61s-.04-.27.36-.72c.13.12.23.24.36.36Z"/>
      </g>
      <path class="cls-3" d="m109.91,42.98c-.15.81-12.4,7.6-13.61,9.04.26.07.47.17.72.27,1.44.6,11.06,2.79,13.52,2.86.16.09-.69,1.75-1.61,1.97-1.49.35-11.98-1.81-14.32-2.33-.93-.21-.47.58-1.88-.72.44-.63.82-1.22,1.43-1.7-.38-.53-.33-.92-.36-.98,2.19-.66,14.57-10.13,15.48-10.02.32.03.68,1.35.63,1.61Z"/>
      <path class="cls-37" d="m72.32,36.71c-.2-.03-1.3,2.71-1.61,3.04-.05-.05-1.09-.55-1.25-.72-.8-.82-1.34-1.7-1.43-1.79,1.72-2.33,5.59-5.22,8.23-6.27.7.31-.54,2.79-.72,2.95-.39.36-3.93.33-2.77,3.67-.28-.34-.2-.86-.45-.9Z"/>
      <path class="cls-12" d="m89.51,53c-4.23-.31-8.47-.15-12.71-.18-.24,0-.48,0-.72,0-.36,0-.73,0-1.07,0-1.3-.01-2.64.08-3.94,0l-.18-.54s.19-.44.27-.54l18.35-.18c.06.44-.08,1.04,0,1.43Z"/>
      <path class="cls-37" d="m105.44,75.56c-.31-.62-1.41-2.72-1.61-3.04.32-.05,1.07-.52,1.25-.72.66.63,1.13.31,1.61-.36.36-.5.37-1.05.54-1.61l.18-.72c.08-.06-.12-.25.36,0,.03.02-.04.42,0,.45.83.49.8-.83,1.16-1.16.28-.26,1.08-.4,1.34-.72.87-.03-.88,3.25-1.25,3.85-.93,1.48-2.31,2.84-3.58,4.03Z"/>
      <path class="cls-36" d="m111.35,42.44c-.19,2.48-12.03,8.18-14.32,9.85-.24-.1-.46-.2-.72-.27,1.21-1.44,13.46-8.23,13.61-9.04.45.69.4.03.72-.18.22-.15.41-.41.72-.36Z"/>
      <path class="cls-26" d="m89.51,53c.1.51.31.51.36.72.04.16.13.2.18.36-1.79-.19-12.21.26-12.8,0-.44-.19-.12-.83-.45-1.25,4.24.03,8.48-.13,12.71.18Z"/>
      <path class="cls-22" d="m103.11,72.87c-2.4,2.72-5.32,2.84-8.77,2.69.15-.42-.23-.82-.09-.9,2.32-.28,4.67-1.13,6.89-1.97.07-.03.63-.01,1.43-.54.07.11.32.4.54.72Z"/>
      <path class="cls-37" d="m63.73,44.59c1.13-.7,4.4-5.09,4.83-5.37.1-.06.24-.15.36-.18.43,1.69-1.02,2.84-.72,4.74-1.28.42-3.7,1.51-4.48.81Z"/>
      <path class="cls-22" d="m115.29,55.15l.36.18c-.19,4.31-2.26,5.2-.18,7.88-.41.32-1.46.26-1.97.36v-3.58c.37-1.63.78-3.25.9-4.92.24-.43.55-.07.9.09Z"/>
      <path class="cls-22" d="m90.58,74.66c.79-.16.49.51.54.54-1.23,1.77-4.25,1.54-6.27,1.25-.07-.41.17-.34.18-.36.67-.7.7-1.35,1.34-1.97l4.21.54Z"/>
      <path class="cls-39" d="m92.01,50.14c.07,0,.86-.02.9,0,.01,0,.03.06.18.18.05.04.69,1.01.72,1.07.03.06-.02.46.36.98-.61.48-1,1.07-1.43,1.7-.35.51-.52.33-.54.36-.82-.09-.68.18-.72.18-.29.01-.32-.09-.54-.18-.06-.02.11-.38-1.07-.72-.05-.21-.25-.21-.36-.72-.08-.39.06-.99,0-1.43v-.36c.12.01.24,0,.36,0,.15.01.2.12.36.18,1.19,1.54-.33.58.9,1.79.56.55.05,1.35,1.25,0,.68-.76,1.15-1.43-.18-1.97-.78-.32-.53.16-.9.18.01-.12-.03-.27,0-.36.3-.97-.02-.02-.9-.54h.18c.47.1.82-.32,1.07-.36.11-.02.24,0,.36,0Z"/>
      <path class="cls-37" d="m115.11,66.07c-.78-1.36-1.57-1.34-2.86-2.06-.05-.43,1.04-.41,1.25-.45.51-.09,1.56-.04,1.97-.36.03.04.41-.05.45,0,1.71,2.18,2.6,2.64-.81,2.86Z"/>
      <path class="cls-39" d="m65.34,53.9c-.77.55-2.49.54-3.04-.18.22.02.16-.15.18-.18.22-.37.41-3.69.81-3.76,2.02-.38.42,3.45,2.06,4.12Z"/>
      <path class="cls-12" d="m120.83,53c.01.36,0,.72,0,1.07-.45-.05-1.01.07-1.43,0-.33-.06-.64.14-.9-.27-.56-4.39,1.49-5.63,2.33-.81Z"/>
      <path class="cls-37" d="m85.93,73.77l-.9,2.33s-.24-.05-.18.36c-1.21-.17-3.11-.5-2.86-1.25,1.37.05,1.39-.72,1.79-1.79.37.12,1.58.25,2.15.36Z"/>
      <path class="cls-3" d="m76.08,52.82c.36,4.58-3.2,5.53-1.07,0,.35,0,.71,0,1.07,0Z"/>
      <path class="cls-2" d="m116.18,37.97c-.87.62-2.4,2.31-3.76,3.04h-.18s-.27-.35-.36-.36c.02-.01.16-.35.18-.36,1.33-.89,3.51-1.13,3.76-3.22.23.12.31.65.36.9Z"/>
      <g>
        <path class="cls-15" d="m105.08,28.84c.14,0,.17.13.36.18-1.41,3.17-2.76,3.19-2.95,3.4-1.84,2.04,1.57.09,2.24-.18.01.06.7.74.9.72l.18-1.43c.56-.08,2.31,2.1,2.33,2.42,0,.08-1.23,1.5.09.27,1.94,1.89.13,1.9.98,2.33.12.06.22.15.36.18,0,.02.31-.07.36.09.07.21-.12,2.76,2.15,3.49-.02.01-.16.34-.18.36-.05.04-.89.5-1.07.54-1.68-5.82-1.1-2.46-.18,1.61-.31.21-.27.87-.72.18.05-.26-.31-1.58-.63-1.61-.92-.1-13.29,9.36-15.48,10.02-.03-.06-.67-1.03-.72-1.07l7.34-11.73c-2.89,3.57-5.21,7.59-7.52,11.55-.04-.02-.82,0-.9,0l-.09-20.94-.45.09q.09,10.43.18,20.86c-.25.04-.6.46-1.07.36l-6.89-10.38c1.36,3.31,4.25,6.28,5.46,9.31-4.57-3.66-10.56-9.78-14.95-13.96l-.27,1.34c2.27,1.25,14.52,14.3,15.57,14.41v.36l-18.35.18c-.08.1-.24.53-.27.54-.38.12-1.09-.25-1.43.27.3.44.96.23,1.61.27,1.3.08,2.63-.01,3.94,0-2.13,5.53,1.43,4.58,1.07,0,.24,0,.48,0,.72,0,.33.42,0,1.06.45,1.25.59.26,11.01-.19,12.8,0,0,.03.38.07.36.45-.04.62-6.04,10.12-6.09,10.74-.01.19.07.63.27.63.65-.02,5.4-10.23,6.36-11.46.22.09.24.19.54.18.31.68-1.4,3.32-.98,3.58.92.1.76-.18.81-.18,1.43-.09,2.42-.61,1.16-.54l-1.16-1.25c.26-.64.52-1.2.9-1.79.02-.03.18.16.54-.36,1.41,1.3.95.51,1.88.72,2.34.51,12.83,2.67,14.32,2.33.92-.21,1.77-1.88,1.61-1.97-2.46-.07-12.07-2.26-13.52-2.86,2.29-1.66,14.13-7.37,14.32-9.85v-.72l.9-.54c.96,1.71.82.21,1.43.81q.31,1.12.63,2.24c-.64-4.92-.87-1.69-1.88-3.22,1.36-.73,2.89-2.42,3.76-3.04.05.23.02.87.18,1.07-1.61.52.25,2.2,1.07.72,2.37,4.25,3.26,8.45,3.4,13.25-.83-4.82-2.89-3.59-2.33.81.25.41.57.21.9.27-.12.65.98.57,1.43.36-.04,1.2.06,2.23-.18,3.49-.14.73-2.28,7.11-2.51,7.43-.22.31-2.1,1.47-2.69,1.43-.05-.17-.25-.52-.36-.72,3.4-.22,2.51-.69.81-2.86-.04-.05-.42.04-.45,0-2.08-2.67,0-3.57.18-7.88.03-.65-.24-.12-.36-.18-.35-.16-.65-.52-.9-.09-.11,1.68-.53,3.29-.9,4.92-.22.98-.82,2.37-.36,3.13-5.97,1.31.71.51,2.33,4.21.11.25.39.63.36.81-.55.52-.83,1.28-1.25,1.88-1.43,1.99-5.9,5.83-8.06,7.16-.46.29-.5.52-.54.54-3.17,1.82-8.67,3.33-12.35,3.76.07-.33.1-1.98-.27-2.15-3.95.16-4.02-.9-4.39,2.15h-.18c-3.55-1.39-8.08-1.31-11.28-3.76-.03-.02-.3-.42-.36-.54.78-1.13,1.42-2.36,2.33-3.4,1.83-2.1,0,1.34,2.51,1.43-.24.75,1.66,1.08,2.86,1.25,2.01.28,5.04.52,6.27-1.25,1.32.71,1.1-.46,1.34-.54,2.61-.87.94,2.05,1.25,2.15.35-.33.47-.82.63-1.25,3.45.15,6.37.04,8.77-2.69.78,1.16,3.02,4.38,2.86,3.49-.16-.28-.4-.52-.54-.81,1.27-1.19,2.66-2.55,3.58-4.03.37-.6,2.12-3.88,1.25-3.85.08-.09,1.23-1.94,1.25-2.06.33-1.52-1.02,1.99-1.79.72l-1.97,2.77c-.48-.25-.28-.06-.36,0-.62.48-.17.68-.18.72-.17.56-.18,1.11-.54,1.61-.84.13-.96.79-1.7-.18-.28.22.16.46.09.54-.18.19-.93.67-1.25.72-1.17-1.85-1.32-1.17-1.43-1.34-1-1.58-1.87-3.3-2.86-4.92-1.88-3.4-3.51-6.94-5.64-10.2-.55.21,5.16,9.42,5.64,10.2,1.08,1.95,1.83,4,3.04,5.91-.8.52-1.36.51-1.43.54-14.24,3.96-7.52-.74-7.7-1.34-.03-.09-1.45-1.22-1.52-1.16-.13.1.69,3.44-1.16,1.34-2.09-2.37.64-3.54.72-3.76.79-2.14-2.52.52-2.69,1.79-.39,3.05,4.01,3.51,1.79,4.92-1.57-.16-3.1-.43-4.65-.72-.57-.11-1.78-.24-2.15-.36-.03,0,.1-.29-.27-.54-.99,3.58-3.17,1.18-2.95-.27.05-.35,3.84-5.32,3.76-6.09-.19-1.8-3.23,5.78-4.3,5.01-.29.77-.6,1.55-1.07,2.24-.77,1.12-1.44,2.3-2.24,3.4-3.06-1.95-5.84-4.19-7.97-7.16-.4-.56-1.3-1.3-1.43-1.97,2.38-4.16,4.96-3,4.83-4.21,0-.03-.21-.44-.45-.45-.17,0-2.91,1.5-3.04,1.61-.09.07-1.31,1.68-1.34,1.79-.57-.54-1.69-1.04-2.15-1.61-.58-.73-1.11-2.49-1.43-3.4,1.7-.69,3.26-8.55,3.94-8.95.27-.16,2.1.1,0-.9-.02,0-.16-.37-.27-.36-.25.03-1.48,1.98-1.7,2.33-.14.01-.33-.02-.36,0-1.64-.67-.04-4.49-2.06-4.12-.39.07-.59,3.39-.81,3.76l-.36-.36c-.06-3.81.33-5.07,1.43-8.59h.18c.78.7,3.19-.39,4.48-.81-.31-1.9,1.15-3.05.72-4.74.08,0,.29.13.36.18.16.12,4.35,4.59,1.79.9l1.25-3.4c.25.03.17.56.45.9-1.15-3.34,2.39-3.31,2.77-3.67.18-.16,1.42-2.65.72-2.95.57-.23,1.22-.28,1.79-.54.14.2.17.17.18.18.45.63.27.9,1.07,1.61.22.2,1.65,1.27,1.61.63-.53-.68-1.53-1.07-1.61-1.16-.32-.39-.39-1.05-.72-1.43-.03-.04.03-.13,0-.18,6.91-4.92,13.94-6.08,21.93-3.04,1.89.72,2.02,1.81,4.56,1.79Z"/>
        <g>
          <path class="cls-2" d="m83.78,73.41c-.4,1.07-.42,1.84-1.79,1.79-2.52-.09-.67-3.53-2.51-1.43h-.54c.47-.68.78-1.46,1.07-2.24,1.06.77,4.11-6.81,4.3-5.01.08.76-3.71,5.73-3.76,6.09-.22,1.45,1.96,3.85,2.95.27.37.25.24.53.27.54Z"/>
          <path class="cls-32" d="m67.31,68.04c-.04-.17-.04-1.14,0-1.25.03-.11,1.26-1.72,1.34-1.79.13-.11,2.87-1.61,3.04-1.61.24,0,.44.42.45.45.13,1.21-2.45.04-4.83,4.21Z"/>
          <path class="cls-35" d="m79.3,31.7v.54c-.8-.71-.63-.98-1.07-1.61l.36-.36c.33.38.4,1.05.72,1.43Z"/>
          <path class="cls-2" d="m113.5,63.56c-.21.04-1.3.02-1.25.45,1.3.72,2.09.7,2.86,2.06.11.19.31.54.36.72.04.15-.02.37,0,.54-1.62-3.69-8.3-2.89-2.33-4.21-.47-.76.14-2.15.36-3.13v3.58Z"/>
          <path class="cls-25" d="m62.48,53.54s.04.2-.18.18h-.18c0-.18,0-.36,0-.54l.36.36Z"/>
          <path class="cls-12" d="m89.15,49.42c.4.32.85.84,1.25,1.07.88.52,1.2-.43.9.54-1.68-.58-1.35.18-1.43.18-.12,0-.24.01-.36,0-1.05-.11-13.31-13.16-15.57-14.41l.27-1.34c4.38,4.19,10.37,10.31,14.95,13.96Z"/>
          <path class="cls-28" d="m101.14,72.69c-2.22.84-4.57,1.69-6.89,1.97-.14.08.24.48.09.9-.16.43-.28.92-.63,1.25-.32-.09,1.36-3.01-1.25-2.15-.24.08-.02,1.25-1.34.54-.05-.03.25-.69-.54-.54v-.18c2.22-1.42-2.18-1.87-1.79-4.92.16-1.27,3.48-3.93,2.69-1.79-.08.21-2.81,1.39-.72,3.76,1.85,2.09,1.03-1.24,1.16-1.34.08-.06,1.49,1.07,1.52,1.16.18.6-6.54,5.3,7.7,1.34Z"/>
          <path class="cls-3" d="m108.57,47.09c.73-.23,1.37.36,1.16,1.16-.07.26-1.87,1.59-1.79,1.97.06.28,1.68.69,1.61,1.79,8.27.46,3.87,1.3-1.07.54.75-1.69-1.63-1.35-1.61-2.51,0-.17,1.5-2.89,1.7-2.95Z"/>
          <path class="cls-3" d="m90.94,54.43c-.96,1.23-5.7,11.44-6.36,11.46-.2,0-.28-.44-.27-.63.05-.62,6.05-10.12,6.09-10.74.02-.38-.35-.42-.36-.45-.05-.16-.14-.2-.18-.36,1.18.33,1.01.69,1.07.72Z"/>
          <path class="cls-28" d="m93.09,50.32c-.15-.12-.17-.17-.18-.18,2.31-3.96,4.63-7.98,7.52-11.55l-7.34,11.73Z"/>
          <path class="cls-10" d="m103.83,72.51c.21.32,1.3,2.42,1.61,3.04.14.28.38.53.54.81.16.89-2.08-2.33-2.86-3.49-.21-.32-.47-.61-.54-.72-1.22-1.91-1.96-3.96-3.04-5.91.99,1.62,1.86,3.34,2.86,4.92.11.17.26-.5,1.43,1.34Z"/>
          <path class="cls-15" d="m116.54,52.64s0-.13,0-.18c-.04-.69-1.21-.84-.98-1.07l2.77-.27c-.36,1.86.25,3.58-1.79,1.52Z"/>
          <path class="cls-14" d="m92.01,50.14c-.12,0-.24-.02-.36,0q-.09-10.43-.18-20.86l.45-.09.09,20.94Z"/>
          <path class="cls-28" d="m110.27,67.68c-.26.32-1.06.46-1.34.72-.37.33-.34,1.66-1.16,1.16-.04-.02.03-.43,0-.45l1.97-2.77c.77,1.28,2.12-2.23,1.79-.72-.03.12-1.18,1.97-1.25,2.06Z"/>
          <path class="cls-19" d="m90.58,50.5h-.18c-.4-.24-.85-.75-1.25-1.07-1.21-3.03-4.1-6-5.46-9.31l6.89,10.38Z"/>
          <path class="cls-32" d="m105.8,29.01c-.44.9-1.3,2.35-1.07,3.22-.67.27-4.08,2.22-2.24.18.19-.21,1.55-.23,2.95-3.4.09.03.24-.01.36,0Z"/>
          <path class="cls-3" d="m105.17,39.58c2.09-.61,2.95,1.14.9,1.43-1.8.25-1.95-1.12-.9-1.43Z"/>
          <path class="cls-31" d="m99.53,66.25c-.48-.78-6.19-10-5.64-10.2,2.13,3.26,3.76,6.81,5.64,10.2Z"/>
          <path class="cls-3" d="m75.99,60.88c2.66-.01-5.39,4.07-2.86,1.79.13-.11,2.7-1.79,2.86-1.79Z"/>
          <path class="cls-3" d="m106.96,60.88c.2-.04,3.52,2.03,3.49,2.24-.11.79-4.79-1.97-3.49-2.24Z"/>
          <path class="cls-37" d="m91.3,58.01c-1.07.16-.36-.91,0-1.79l1.16,1.25c1.26-.07.26.44-1.16.54Z"/>
          <path class="cls-2" d="m110.81,41.19c.06.21.32.47.54.54v.72c-.31-.05-.5.21-.72.36-.92-4.07-1.5-7.43.18-1.61Z"/>
          <path class="cls-3" d="m104.99,65.53c1.36-.05.59,2.13-.54,1.61-.7-.32-.04-1.59.54-1.61Z"/>
          <path class="cls-31" d="m90.58,74.48v.18l-4.21-.54c-.65.62-.68,1.27-1.34,1.97l.9-2.33c1.55.29,3.08.56,4.65.72Z"/>
          <path class="cls-2" d="m71.7,65c.55,3.46,3.21.79,2.77,2.42-.07.27-3.21.41-2.77-2.42Z"/>
          <path class="cls-3" d="m79.03,65.89c1.01-.19,1.23,1.47.36,1.61-.89.14-1.28-1.44-.36-1.61Z"/>
          <path class="cls-7" d="m70.71,39.76c.07.07.34.34.36.36,2.56,3.7-1.63-.78-1.79-.9l.18-.18c.16.17,1.2.67,1.25.72Z"/>
          <path class="cls-36" d="m116.36,39.04s.43.01.54.18l.36.36s.05-.06.18.18c-.83,1.48-2.69-.19-1.07-.72Z"/>
          <path class="cls-37" d="m71.07,40.11s-.29-.29-.36-.36c.31-.33,1.42-3.07,1.61-3.04l-1.25,3.4Z"/>
          <path class="cls-36" d="m112.24,41.19s.02-.13,0-.18h.18c1.01,1.53,1.24-1.69,1.88,3.22q-.31-1.12-.63-2.24c-.61-.6-.47.9-1.43-.81Z"/>
          <path class="cls-6" d="m92.19,54.43c-.37.59-.63,1.15-.9,1.79-.36.88-1.07,1.95,0,1.79-.04,0,.11.27-.81.18-.41-.26,1.29-2.9.98-3.58.04,0-.1-.27.72-.18Z"/>
          <path class="cls-33" d="m116.54,52.47c0,.05.01.13,0,.18-.16.58-.89.81-1.61.18l.9-.72c.4.08.41.17.72.36Z"/>
          <path class="cls-8" d="m111.88,40.65c.08.01.35.34.36.36.02.05-.03.13,0,.18l-.9.54c-.21-.07-.48-.33-.54-.54.18-.04,1.03-.5,1.07-.54Z"/>
          <path class="cls-4" d="m79.3,32.24v-.54c.08.09,1.08.49,1.61,1.16.04.64-1.39-.43-1.61-.63Z"/>
          <path class="cls-3" d="m70.89,52.29l.18.54c-.65-.04-1.31.17-1.61-.27.34-.51,1.05-.14,1.43-.27Z"/>
          <path class="cls-21" d="m67.67,52.82c-.68.05-.17-.49,0-.9,2.1,1,.27.74,0,.9Z"/>
          <path class="cls-36" d="m68.29,46.92l.18,2.86c-.96-.69-.54-1.93-.18-2.86Z"/>
          <path class="cls-31" d="m115.02,46.74c.17.51.81,3.17-.18,3.04l.18-3.04Z"/>
          <path class="cls-24" d="m115.82,52.11l-.9.72c-.66-.58.16-.86.9-.72Z"/>
          <path class="cls-23" d="m120.83,54.08c0,.13,0,.21,0,.36-.45.21-1.56.3-1.43-.36.42.07.98-.05,1.43,0Z"/>
          <path class="cls-22" d="m81.54,29.55c.72-.25.83.03-.09.45,1.18,3.33-.4.53-.36.18.02-.21.29-.57.45-.63Z"/>
          <path class="cls-36" d="m69.55,41.37l-.45.98c.82,3.05-.48,1.13-.18-.18.02-.1.49-.34.63-.81Z"/>
          <path class="cls-28" d="m106.69,71.44c-.48.67-.95.99-1.61.36.07-.08-.37-.32-.09-.54.74.97.86.31,1.7.18Z"/>
          <path class="cls-31" d="m68.83,59.09c1.04,3.11.33,3.58-.09.09l.09-.09Z"/>
          <path class="cls-2" d="m94.79,25.97c.25,0,.75.89.18,1.07-.58.19-.77-1.08-.18-1.07Z"/>
          <path class="cls-36" d="m88.16,27.94c.4-.07.24.33.27.81.09,1.73-.65,1.48-.27-.81Z"/>
          <path class="cls-3" d="m68.29,45.66c.59-.44.92.76.36.9-.41.1-.62-.7-.36-.9Z"/>
          <path class="cls-3" d="m68.29,58.01c.41-.1.62.68.36.9-.43.34-.97-.75-.36-.9Z"/>
          <path class="cls-3" d="m114.66,45.48c.47-.12.63.79.18.9-.7.17-.51-.81-.18-.9Z"/>
          <path class="cls-36" d="m98.01,28.48c-.1,2.36-1.19,2.76-.09.09l.09-.09Z"/>
          <path class="cls-36" d="m101.95,29.91c.28.2.27.31.27.63-.01.59-1.17,2.41-.27-.63Z"/>
          <path class="cls-36" d="m70.08,62.67c.59.16-1.36,2.6-.09.09.04-.05.07-.09.09-.09Z"/>
          <path class="cls-36" d="m105.8,31.52l-.18,1.43c.1-.25-.21-1.38.18-1.43Z"/>
          <path class="cls-22" d="m83.6,30.27c-.16-.34-.72-.94-.45-1.43.34.47.34,1.08.45,1.43Z"/>
          <path class="cls-36" d="m95.5,28.12c.09,0,.16,1.53.09,1.7-.2.46-.28-1.7-.09-1.7Z"/>
          <path class="cls-28" d="m74.2,68.93l.36.72c-.53.11-.57-.25-.36-.72Z"/>
          <path class="cls-17" d="m68.29,55.15c.36.13-.56,1.03-.63.81-.06-.18.58-.82.63-.81Z"/>
          <path class="cls-3" d="m109.56,36.71c-.13-.03-.23-.12-.36-.18.64-1.37.34.12.36.18Z"/>
          <path class="cls-22" d="m72.95,37.79s.45.82.18.9c-.18.05-.45-.78-.18-.9Z"/>
          <path class="cls-22" d="m83.6,30.27s.54.46.27.72c-.69-.52-.23-.58-.27-.72Z"/>
          <path class="cls-17" d="m75.63,34.38s.45.42.45.45c0,.69-.81-.33-.45-.45Z"/>
          <path class="cls-14" d="m107.23,69.83s-.44-.24.18-.72l-.18.72Z"/>
          <path class="cls-36" d="m89.95,28.84s.34.27.27.45c-.11.28-.56-.42-.27-.45Z"/>
          <path class="cls-28" d="m115.64,55.33l-.36-.18c.12.06.39-.47.36.18Z"/>
        </g>
      </g>
      <path class="cls-16" d="m117.25,39.58l-.36-.36s.05-.18.36.36Z"/>
      <path class="cls-38" d="m91.3,51.03c-.03.09.01.24,0,.36-.22.01-.25.3-1.07,0-.16-.06-.21-.17-.36-.18.09,0-.25-.76,1.43-.18Z"/>
      <path class="cls-34" d="m92.19,51.21c.03.61.62,1.72-.36,1.79-.33-.12-.62-.24-.72.18-1.22-1.21.29-.25-.9-1.79.83.3.85.01,1.07,0,.37-.02.11-.5.9-.18Z"/>
      <path class="cls-30" d="m92.37,53.18c-.61.08-.51-.17-.54-.18.97-.07.38-1.18.36-1.79,1.33.54.86,1.21.18,1.97Z"/>
      <path class="cls-1" d="m91.83,53s-.08.26.54.18c-1.21,1.35-.7.55-1.25,0,.1-.42.38-.3.72-.18Z"/>
    </g>
  </g>
</svg>