<?xml version="1.0" encoding="utf-8"?>
<!-- Generator: Adobe Illustrator 16.0.3, SVG Export Plug-In . SVG Version: 6.00 Build 0)  -->
<!DOCTYPE svg PUBLIC "-//W3C//DTD SVG 1.1//EN" "http://www.w3.org/Graphics/SVG/1.1/DTD/svg11.dtd">
<svg version="1.1" id="Lag_1" xmlns="http://www.w3.org/2000/svg" xmlns:xlink="http://www.w3.org/1999/xlink" x="0px" y="0px"
	 width="351.333px" height="375px" viewBox="0 -40.167 351.333 375" enable-background="new 0 -40.167 351.333 375"
	 xml:space="preserve">
<path d="M111.696,306.719l-5.544-0.039l-5.558-0.027v9.197H87.456v-11.824h10.117v-9.985H87.456v-10.115h13.138v7.357l5.558-0.027
	l5.544-0.039v-17.606l-20.523-0.039l-20.535-0.025v10.38h5.387v31.926h-5.387v9.328h41.124l-0.026-9.236L111.696,306.719z
	 M163.396,283.005h5.387v32.846h-5.387v9.328h22.071v-9.328h-5.385v-32.846h5.385v-9.46h-22.071V283.005z M147.735,310.03
	l-0.039,3.782l-0.368,0.617c-0.197,0.344-0.578,0.789-0.841,0.986l-0.473,0.369l-5.899,0.039l-5.886,0.039v-32.859h5.387v-9.46
	h-22.072v9.46h5.387v32.846h-5.387v9.328h41.255v-18.92h-11.023L147.735,310.03z M280.526,306.719l-5.544-0.039l-5.558-0.027v9.197
	h-13.139v-11.824h10.116v-9.985h-10.116v-10.115h13.139v7.357l5.558-0.027l5.544-0.039v-17.606l-20.521-0.039l-20.535-0.025v10.38
	h5.387v31.926h-5.387v9.328h41.123l-0.025-9.236L280.526,306.719z M187.704,289.311h11.168v-6.569h6.174v33.108h-5.387v9.328h22.204
	v-9.328h-5.518v-33.108h7.095v6.569h11.167v-15.767h-46.903V289.311z"/>
<path fill="#007744" d="M209.709,125.407c7.83,5.255,18.092,5.281,25.961,0.078c10.879-7.187,13.756-21.98,6.387-32.768
	c-4.796-7.016-13.047-10.865-21.574-10.064c-9.184,0.881-17.016,7.121-19.957,15.897c-0.867,2.602-1.063,3.995-1.063,7.41
	c0,2.641,0.037,3.206,0.301,4.52C201.011,116.657,204.534,121.926,209.709,125.407z"/>
<path fill="#007744" d="M135.753,128.481c3.836-1.076,7.318-3.14,10.235-6.096c3.469-3.495,5.531-7.542,6.464-12.679
	c0.303-1.734,0.303-5.755,0-7.489c-0.933-5.138-2.995-9.184-6.464-12.679c-3.535-3.574-7.765-5.794-12.613-6.636
	c-1.721-0.288-4.664-0.42-6.293-0.263c-5.781,0.552-11.522,3.456-15.24,7.712c-8.291,9.474-7.831,23.559,1.064,32.321
	C118.856,128.548,127.62,130.768,135.753,128.481z"/>
<path fill="#007744" d="M102.617,168.002c0.407,10.8,2.772,20.365,7.358,29.812c3.718,7.621,8.041,13.678,14.124,19.773
	c2.93,2.917,5.006,4.729,7.962,6.951c10.734,8.041,23.334,12.915,36.854,14.255c2.956,0.289,8.514,0.394,11.496,0.21
	c15.728-0.985,29.969-6.569,42.268-16.568c2.365-1.918,7.607-7.094,9.513-9.394c10.394-12.521,16.134-26.935,17.134-43.029
	c0.064-1.196,0.131-2.681,0.131-3.324v-1.143H102.525L102.617,168.002z"/>
<path fill="#007744" d="M332.672,112.807c-6.201-42.779-29.889-81.249-65.481-106.396c-28.222-19.918-62.079-29.97-96.923-28.734
	c-9.894,0.342-20.155,1.682-29.733,3.876c-37.511,8.592-70.567,30.6-93.218,62.066c-7.187,9.984-13.506,21.456-18.144,32.912
	c-6.07,15.043-9.736,30.651-11.023,46.97c-0.526,6.818-0.592,16.712-0.132,23.058c1.538,21.547,6.846,41.163,16.253,59.979
	c3.087,6.188,5.793,10.892,9.512,16.527c1.117,1.683,2.023,3.102,2.023,3.141c0,0.196,4.152,5.715,6.333,8.409
	c5.741,7.095,11.522,13.256,17.776,18.919l0.319,0.292h51.021l-2.597-1.29c-10.169-5.072-19.865-11.51-27.998-18.617
	c-5.426-4.743-11.575-11.115-15.897-16.477c-10.656-13.217-18.565-28.273-23.426-44.54c-8.238-27.538-6.963-57.626,3.574-84.35
	c5.715-14.505,13.782-27.563,24.385-39.48c2.037-2.3,7.778-8.016,10.13-10.104C112.905,18.13,142.02,6.62,173.184,5.871
	c2.273-0.065,7.24,0.025,10.052,0.184c26.119,1.394,51.411,10.854,72.288,27.026c8.686,6.727,16.909,14.965,23.559,23.609
	c21.902,28.473,31.02,64.366,25.344,99.894c-3.508,22.046-12.941,43.226-27.053,60.726c-4.494,5.584-9.723,11.063-13.927,14.584
	c-0.644,0.539-1.354,1.169-1.563,1.38c-3.062,3.048-11.141,9.079-17.291,12.902c-1.76,1.09-2.955,1.773-7.488,4.335
	c-1.828,1.035-4.594,2.439-6.521,3.313h51.021l1.265-1.133c4.86-4.388,11.01-10.813,15.148-15.806
	c20.324-24.53,32.807-54.709,35.656-86.188c0.447-5.059,0.539-6.858,0.619-12.613C334.409,128.876,333.948,121.597,332.672,112.807z
	"/>
</svg>
